<svg width="30" height="30" viewBox="0 0 30 30" fill="none" xmlns="http://www.w3.org/2000/svg">
<path d="M9.00079 15.4996C10.3814 15.4996 11.5006 14.3804 11.5006 12.9998C11.5006 11.6192 10.3814 10.5 9.00079 10.5C7.62018 10.5 6.50098 11.6192 6.50098 12.9998C6.50098 14.3804 7.62018 15.4996 9.00079 15.4996Z" fill="white"/>
<path d="M17.5615 11.9173L17.2466 11.8779C16.4372 11.7764 15.7667 11.2669 15.4957 10.5475C15.4487 10.423 15.3982 10.3 15.3437 10.1775C15.0197 9.44958 15.1412 8.58264 15.6607 7.9152L15.8197 7.71072C15.9742 7.51176 15.9567 7.22877 15.7782 7.05025L14.9493 6.22134C14.7713 6.04334 14.4878 6.02588 14.2883 6.18032L14.0843 6.33881C13.4174 6.85826 12.55 6.98024 11.8221 6.65577C11.6995 6.60129 11.5761 6.55078 11.4516 6.50379C10.7327 6.23282 10.2227 5.56186 10.1217 4.75292L10.0822 4.43795C10.0512 4.18795 9.83823 4 9.58624 4H8.41382C8.16183 4 7.94886 4.18748 7.91787 4.43795L7.87838 4.75292C7.7769 5.56233 7.26742 6.23329 6.54847 6.50379C6.4235 6.55078 6.3 6.60129 6.17802 6.65577C5.44958 6.97825 4.58264 6.85779 3.91573 6.33881L3.71172 6.1798C3.51275 6.0243 3.22924 6.04229 3.05125 6.22081L2.22134 7.04972C2.04288 7.22772 2.02536 7.5107 2.17986 7.7102L2.33887 7.91467C2.85831 8.58212 2.9793 9.44905 2.65583 10.1775C2.60134 10.3 2.55084 10.423 2.50385 10.5475C2.23288 11.2664 1.56192 11.7764 0.752984 11.8774L0.43801 11.9169C0.188012 11.9479 0 12.1608 0 12.4128V13.5852C0 13.8372 0.187953 14.0502 0.437951 14.0812L0.752398 14.1207C1.5618 14.2222 2.23276 14.7317 2.50373 15.4511C2.55072 15.5756 2.60123 15.6985 2.65571 15.8211C2.97918 16.549 2.8582 17.4159 2.33875 18.0833L2.18027 18.2878C2.0253 18.4868 2.04329 18.7698 2.22175 18.9483L3.05066 19.7772C3.22865 19.9562 3.51211 19.9737 3.71113 19.8187L3.91514 19.6602C4.58258 19.1408 5.44952 19.0188 6.17743 19.3432C6.29994 19.3977 6.42339 19.4482 6.54789 19.4952C7.26683 19.7662 7.77679 20.4372 7.87779 21.2461L7.91728 21.5611C7.94828 21.8111 8.16125 21.999 8.41324 21.999H9.58566C9.83765 21.999 10.0506 21.8115 10.0816 21.5611L10.1211 21.2461C10.2221 20.4367 10.7321 19.7657 11.451 19.4952C11.576 19.4482 11.6995 19.3977 11.8215 19.3432C12.5494 19.0198 13.4163 19.1408 14.0843 19.6602L14.2883 19.8187C14.4868 19.9732 14.7702 19.9557 14.9488 19.7772L15.7777 18.9483C15.9567 18.7703 15.9747 18.4878 15.8197 18.2884L15.6607 18.0839C15.1412 17.4164 15.0197 16.5495 15.3437 15.8211C15.3977 15.6985 15.4487 15.5756 15.4957 15.4511C15.7667 14.7321 16.4376 14.2222 17.2466 14.1212L17.5615 14.0817C17.8115 14.0507 17.9995 13.8377 17.9995 13.5857V12.4133C17.9995 12.1614 17.812 11.9483 17.5615 11.9173ZM9.00077 16.4995C7.07091 16.4995 5.50108 14.9296 5.50108 12.9998C5.50108 11.0699 7.07097 9.50008 9.00077 9.50008C10.9306 9.50008 12.5005 11.07 12.5005 12.9998C12.5005 14.9296 10.9306 16.4995 9.00077 16.4995Z" fill="white"/>
<path d="M22.4998 24.4996C23.6043 24.4996 24.4996 23.6043 24.4996 22.4998C24.4996 21.3953 23.6043 20.5 22.4998 20.5C21.3953 20.5 20.5 21.3953 20.5 22.4998C20.5 23.6043 21.3953 24.4996 22.4998 24.4996Z" fill="white"/>
<path d="M29.5613 21.5209L29.3018 21.4883C28.6678 21.4088 28.1429 21.0109 27.9314 20.4499C27.8924 20.3459 27.8499 20.2424 27.8044 20.1395C27.551 19.5695 27.6469 18.89 28.0544 18.3666L28.1854 18.1986C28.3404 17.9997 28.3224 17.7162 28.1444 17.5382L27.4614 16.8557C27.2834 16.6773 27.0005 16.6597 26.8015 16.8142L26.633 16.9452C26.109 17.3527 25.4296 17.4482 24.8596 17.1952C24.7571 17.1498 24.6542 17.1078 24.5496 17.0683C23.9882 16.8568 23.5902 16.3318 23.5112 15.6984L23.4787 15.4389C23.4477 15.1885 23.2347 15.001 22.9827 15.001H22.0173C21.7653 15.001 21.5523 15.1885 21.5208 15.4389L21.4888 15.6984C21.4093 16.3323 21.0114 16.8573 20.4499 17.0688C20.3459 17.1083 20.2425 17.1503 20.1405 17.1958C19.57 17.4482 18.891 17.3533 18.3666 16.9453L18.1986 16.8148C17.9997 16.6603 17.7167 16.6788 17.5387 16.8563L16.8563 17.5388C16.6778 17.7167 16.6603 18.0002 16.8148 18.1992L16.9458 18.3672C17.3533 18.8912 17.4492 19.5706 17.1958 20.1406C17.1503 20.243 17.1083 20.3466 17.0693 20.45C16.8578 21.0115 16.3324 21.4094 15.6984 21.4889L15.4389 21.5214C15.1889 21.5524 15.001 21.7654 15.001 22.0174V22.9828C15.001 23.2348 15.1885 23.4478 15.4389 23.4788L15.6984 23.5113C16.3324 23.5908 16.8573 23.9887 17.0688 24.5497C17.1083 24.6537 17.1503 24.7572 17.1958 24.8602C17.4492 25.4301 17.3533 26.1096 16.9458 26.633L16.8148 26.801C16.6598 27 16.6778 27.2835 16.8563 27.4615L17.5387 28.1439C17.7172 28.3219 17.9997 28.3399 18.1986 28.1854L18.3671 28.0544C18.8911 27.6469 19.5706 27.5514 20.1405 27.8044C20.243 27.8499 20.346 27.8919 20.45 27.9314C21.0114 28.1429 21.4094 28.6678 21.4889 29.3012L21.5209 29.5607C21.5519 29.8112 21.7648 29.9987 22.0174 29.9987H22.9828C23.2348 29.9987 23.4477 29.8112 23.4787 29.5607L23.5107 29.3012C23.5902 28.6673 23.9882 28.1423 24.5502 27.9304C24.6542 27.8909 24.7576 27.8489 24.8596 27.8034C25.4296 27.5499 26.109 27.6454 26.633 28.0539L26.801 28.1843C26.9999 28.3388 27.2829 28.3209 27.4609 28.1429L28.1438 27.4604C28.3218 27.2824 28.3398 26.999 28.1848 26.7999L28.0538 26.632C27.6463 26.108 27.5508 25.4286 27.8038 24.8586C27.8494 24.7561 27.8918 24.6526 27.9308 24.5491C28.1423 23.9877 28.6677 23.5897 29.3012 23.5102L29.5607 23.4777C29.8107 23.4467 29.9982 23.2338 29.9982 22.9818V22.0163C29.9993 21.7648 29.8113 21.5524 29.5613 21.5209ZM22.4999 25.4995C20.846 25.4995 19.5001 24.1541 19.5001 22.4998C19.5001 20.8454 20.846 19.5 22.4999 19.5C24.1543 19.5 25.4996 20.8454 25.4996 22.4998C25.4996 24.1541 24.1537 25.4995 22.4999 25.4995Z" fill="white"/>
<path d="M23.499 7.50085C24.0512 7.50085 24.4989 7.05316 24.4989 6.50091C24.4989 5.94866 24.0512 5.50098 23.499 5.50098C22.9467 5.50098 22.499 5.94866 22.499 6.50091C22.499 7.05316 22.9467 7.50085 23.499 7.50085Z" fill="white"/>
<path d="M29.5609 5.59098L29.3385 5.56297C28.8295 5.49946 28.391 5.1675 28.222 4.71806C28.1881 4.62754 28.151 4.53755 28.1115 4.44908C27.9051 3.98465 27.9835 3.43016 28.3165 3.00223L28.429 2.85822C28.584 2.65925 28.5665 2.37627 28.388 2.19775L27.8031 1.61279C27.6251 1.4348 27.3416 1.41728 27.1426 1.57131L26.9981 1.6838C26.5701 2.01676 26.0152 2.09574 25.5513 1.88927C25.4618 1.84926 25.3718 1.81276 25.2818 1.77878C24.8254 1.60682 24.5014 1.17883 24.4369 0.662366L24.4094 0.439905C24.3784 0.189906 24.1655 0.00195312 23.913 0.00195312H23.0855C22.8335 0.00195312 22.6205 0.189906 22.5896 0.439905L22.5621 0.661898C22.4986 1.17086 22.1666 1.60934 21.7182 1.77831C21.6272 1.81229 21.5366 1.84932 21.4477 1.88927C20.9837 2.09527 20.4287 2.01729 20.0003 1.6838L19.8558 1.57184C19.6568 1.41687 19.3738 1.43486 19.1959 1.61332L18.6109 2.19827C18.4324 2.37673 18.4149 2.65972 18.5699 2.85874L18.6819 3.00276C19.0148 3.43122 19.0938 3.9857 18.8873 4.44961C18.8478 4.5386 18.8113 4.62807 18.7768 4.71906C18.6079 5.16855 18.1694 5.49999 17.6604 5.5635L17.438 5.5915C17.188 5.6225 17 5.83547 17 6.08746V6.91491C17 7.1669 17.1875 7.37987 17.438 7.41086L17.6604 7.43887C18.1698 7.50238 18.6079 7.83434 18.7773 8.28378C18.8113 8.37424 18.8483 8.46429 18.8878 8.55276C19.0943 9.01719 19.0153 9.57168 18.6823 9.99961L18.5704 10.1436C18.4154 10.3426 18.4328 10.6256 18.6114 10.8041L19.1963 11.389C19.3743 11.5675 19.6578 11.5855 19.8568 11.4305L20.0013 11.318C20.4293 10.9851 20.9837 10.9066 21.4481 11.1126C21.5376 11.1526 21.6276 11.1891 21.7176 11.2231C22.174 11.395 22.498 11.823 22.562 12.3395L22.59 12.5619C22.621 12.8119 22.834 12.9999 23.086 12.9999H23.9134C24.1654 12.9999 24.3784 12.8119 24.4099 12.5619L24.4374 12.3399C24.5019 11.823 24.8258 11.395 25.2813 11.2235C25.3723 11.1895 25.4628 11.1525 25.5518 11.1126C26.0158 10.9061 26.5707 10.9845 26.9992 11.318L27.1437 11.43C27.3426 11.5845 27.6256 11.5665 27.8041 11.3885L28.3891 10.8036C28.5675 10.6251 28.5851 10.3421 28.4301 10.1431L28.3181 9.99908C27.9846 9.57062 27.9062 9.01614 28.1127 8.55223C28.1521 8.46323 28.1892 8.37377 28.2232 8.28278C28.3927 7.83329 28.8306 7.50185 29.34 7.43834L29.5625 7.41033C29.8125 7.37934 30 7.16637 30 6.91438V6.08693C29.9989 5.83494 29.8109 5.6225 29.5609 5.59098ZM23.4994 8.50073C22.3965 8.50073 21.4996 7.60379 21.4996 6.50092C21.4996 5.39804 22.3966 4.50111 23.4994 4.50111C24.6024 4.50111 25.4992 5.39804 25.4992 6.50092C25.4992 7.60379 24.6018 8.50073 23.4994 8.50073Z" fill="white"/>
</svg>
