<svg width="22" height="24" viewBox="0 0 22 24" fill="none" xmlns="http://www.w3.org/2000/svg">
<path d="M21.7282 14.5299L21.8152 12.241L20.3696 11.9799C20.2892 11.2303 20.1219 10.5075 19.8743 9.82483L21.0589 8.96144L19.9881 6.94018L18.6026 7.43546C18.1676 6.83979 17.6589 6.29097 17.0967 5.81577L17.6924 4.4705L15.7515 3.25908L14.8011 4.3768C14.0314 4.04215 13.2148 3.79451 12.3515 3.67404L12.144 2.22168H9.855L9.64752 3.67404C8.89791 3.78113 8.18846 3.97522 7.51248 4.24294L6.60893 3.08507L4.62114 4.23625L5.16996 5.6016C4.58767 6.06341 4.06563 6.58546 3.61051 7.16774L2.24515 6.61892L1.09397 8.60003L2.25185 9.51026C2.0176 10.0859 1.85027 10.6882 1.73649 11.3107L0.270744 11.4646L0.19043 13.7536L1.6361 14.0146C1.71641 14.7642 1.88374 15.4803 2.13137 16.1697L0.946729 17.0331L2.0176 19.0544L3.39634 18.5591C3.83137 19.1548 4.34004 19.6969 4.90224 20.1788L4.30657 21.524L6.24752 22.7355L7.19791 21.6177C7.87389 21.9189 8.59004 22.1398 9.33295 22.2736C9.43334 22.2937 9.54043 22.3138 9.64752 22.3272L9.855 23.7796H12.144L12.3515 22.3272C12.4585 22.3138 12.5589 22.2937 12.666 22.2736C13.2952 22.1599 13.9042 21.9859 14.4865 21.7516L15.3967 22.9028L17.3778 21.7583L16.829 20.3929C17.4113 19.9311 17.94 19.4091 18.3952 18.8268L19.7605 19.3756L20.905 17.3945L19.7471 16.491C19.9747 15.9154 20.1487 15.313 20.2625 14.6906L21.7282 14.5299ZM11.8495 20.1654C11.5684 20.1988 11.2873 20.2189 10.9995 20.2189C10.7117 20.2189 10.4239 20.2055 10.1495 20.1654C6.56878 19.7437 3.78452 16.6918 3.78452 12.9973C3.78452 9.00829 7.0172 5.77562 11.0062 5.77562C14.9952 5.77562 18.2278 9.00829 18.2278 12.9973C18.2211 16.6985 15.4369 19.7437 11.8495 20.1654Z" fill="white"/>
<path d="M16.3875 0.52832H5.61185C4.84217 0.52832 4.21973 1.15076 4.21973 1.92045V9.86494C4.21973 10.6346 4.84217 11.2571 5.61185 11.2571H8.64375L10.9997 13.613L13.3556 11.2571H16.3875C17.1571 11.2571 17.7796 10.6346 17.7796 9.86494V1.92045C17.7863 1.15076 17.1571 0.52832 16.3875 0.52832Z" fill="white"/>
<path d="M11.9496 3.91533C11.9496 5.68895 11.5213 8.24564 10.9992 8.24564C10.4772 8.24564 10.0488 5.68895 10.0488 3.91533C10.0488 2.14171 10.4772 1.82715 10.9992 1.82715C11.5213 1.82715 11.9496 2.14171 11.9496 3.91533Z" fill="#10CE9C"/>
<path d="M10.9992 10.0395C11.3467 10.0395 11.6284 9.75785 11.6284 9.41039C11.6284 9.06293 11.3467 8.78125 10.9992 8.78125C10.6518 8.78125 10.3701 9.06293 10.3701 9.41039C10.3701 9.75785 10.6518 10.0395 10.9992 10.0395Z" fill="#10CE9C"/>
</svg>
