<svg width="30" height="30" viewBox="0 0 30 30" fill="none" xmlns="http://www.w3.org/2000/svg">
<path d="M5.52908 17.4784C5.52908 18.8573 4.41106 19.9754 3.03212 19.9754C1.65294 19.9754 0.535156 18.8573 0.535156 17.4784C0.535156 16.0995 1.65294 14.9814 3.03212 14.9814C4.41106 14.9814 5.52908 16.0995 5.52908 17.4784Z" fill="#10CE9C"/>
<path d="M12.5203 19.9755C12.5203 21.3544 11.4023 22.4724 10.0233 22.4724C8.64415 22.4724 7.52637 21.3544 7.52637 19.9755C7.52637 18.5965 8.64415 17.4785 10.0233 17.4785C11.4023 17.4785 12.5203 18.5965 12.5203 19.9755Z" fill="#10CE9C"/>
<path d="M7.0281 26.9667C7.0281 28.3456 5.91008 29.4636 4.53114 29.4636C3.15196 29.4636 2.03418 28.3456 2.03418 26.9667C2.03418 25.5877 3.15196 24.4697 4.53114 24.4697C5.91008 24.4697 7.0281 25.5877 7.0281 26.9667Z" fill="white"/>
<path d="M3.53199 17.4789C3.53199 17.7547 3.30838 17.9783 3.03259 17.9783C2.75681 17.9783 2.5332 17.7547 2.5332 17.4789C2.5332 17.2031 2.75681 16.9795 3.03259 16.9795C3.30838 16.9795 3.53199 17.2031 3.53199 17.4789Z" fill="white"/>
<path d="M10.5242 19.976C10.5242 20.2517 10.3006 20.4753 10.0248 20.4753C9.749 20.4753 9.52539 20.2517 9.52539 19.976C9.52539 19.7002 9.749 19.4766 10.0248 19.4766C10.3006 19.4766 10.5242 19.7002 10.5242 19.976Z" fill="white"/>
<path d="M5.03003 26.9672C5.03003 27.243 4.80643 27.4666 4.53064 27.4666C4.25485 27.4666 4.03125 27.243 4.03125 26.9672C4.03125 26.6914 4.25485 26.4678 4.53064 26.4678C4.80643 26.4678 5.03003 26.6914 5.03003 26.9672Z" fill="white"/>
<path d="M6.12817 1.25149L6.86678 0.673828L8.20133 1.22662L8.31618 2.15859L9.03821 2.88062L9.97018 2.99595L10.523 4.32978L9.94506 5.06936V6.09228L10.523 6.83089L9.97018 8.1652L9.03821 8.28005L8.31618 9.00207L8.20133 9.93404L6.86678 10.4868L6.12817 9.90893H5.10549L4.36591 10.4868L3.03209 9.93404L2.91724 9.00207L2.19448 8.28005L1.26276 8.1652L0.709961 6.83089L1.28763 6.09228V5.06936L0.709961 4.32978L1.26276 2.99595L2.19448 2.8811L2.91675 2.15859L3.03209 1.22662L4.36591 0.673828L5.10549 1.25149H6.12817Z" fill="white"/>
<path d="M7.691 5.58024C7.691 6.72606 6.76219 7.65486 5.61637 7.65486C4.47079 7.65486 3.54199 6.72606 3.54199 5.58024C3.54199 4.43466 4.47079 3.50586 5.61637 3.50586C6.76219 3.50586 7.691 4.43466 7.691 5.58024Z" fill="#10CE9C"/>
<path d="M20.8699 3.65545L22.441 1.99805L23.8248 2.44745L24.1216 4.71227L25.0674 5.39943L27.3147 4.98197L28.1696 6.159L27.077 8.16559L27.4386 9.27776L29.5005 10.2595V11.7147L27.4386 12.6965L27.077 13.8086L28.1682 15.8152L27.3132 16.9923L25.066 16.5748L24.1201 17.2619L23.8248 19.5268L22.441 19.9762L20.8699 18.3188H19.7004L18.1293 19.9762L16.7455 19.5268L16.4488 17.2619L15.5029 16.5748L13.2556 16.9923L12.4007 15.8152L13.4919 13.8086L13.1303 12.6965L11.0684 11.7147V10.2595L13.1303 9.27776L13.4919 8.16559L12.4007 6.159L13.2556 4.98197L15.5029 5.39943L16.4488 4.71227L16.7455 2.44745L18.1293 1.99805L19.7004 3.65545H20.8699Z" fill="white"/>
<path d="M27.5253 22.5663L29.1093 23.0157L29.4543 24.053L28.4555 25.3624L28.3402 25.9247L28.7399 27.5226L28.0166 28.3398L26.3836 28.1296L25.8388 28.3107L24.6567 29.4595L23.586 29.2395L22.9512 27.7165L22.5218 27.3349L20.9378 26.8855L20.5928 25.8482L21.5916 24.539L21.7069 23.9767L21.3072 22.3785L22.0329 21.5609L23.6659 21.7713L24.2107 21.5899L25.3929 20.4414L26.4636 20.6611L27.0983 22.1807L27.5253 22.5663Z" fill="#10CE9C"/>
<path d="M27.0029 24.9692C27.0029 26.0724 26.1085 26.9668 25.0054 26.9668C23.902 26.9668 23.0078 26.0724 23.0078 24.9692C23.0078 23.8661 23.902 22.9717 25.0054 22.9717C26.1085 22.9717 27.0029 23.8661 27.0029 24.9692Z" fill="white"/>
<path d="M24.5067 10.9867C24.5067 13.4691 22.4942 15.4813 20.0121 15.4813C17.5298 15.4813 15.5176 13.4691 15.5176 10.9867C15.5176 8.50439 17.5298 6.49219 20.0121 6.49219C22.4942 6.49219 24.5067 8.50439 24.5067 10.9867Z" fill="#10CE9C"/>
<path d="M22.5086 10.9862C22.5086 12.3652 21.3905 13.4832 20.0116 13.4832C18.6324 13.4832 17.5146 12.3652 17.5146 10.9862C17.5146 9.60728 18.6324 8.48926 20.0116 8.48926C21.3905 8.48926 22.5086 9.60728 22.5086 10.9862Z" fill="white"/>
<path d="M29.5005 1.49781C29.5005 2.04938 29.0533 2.49659 28.5017 2.49659C27.9501 2.49659 27.5029 2.04938 27.5029 1.49781C27.5029 0.946233 27.9501 0.499023 28.5017 0.499023C29.0533 0.499023 29.5005 0.946233 29.5005 1.49781Z" fill="#10CE9C"/>
<path d="M13.5193 0.998416C13.5193 1.2742 13.2957 1.49781 13.0199 1.49781C12.7441 1.49781 12.5205 1.2742 12.5205 0.998416C12.5205 0.722628 12.7441 0.499023 13.0199 0.499023C13.2957 0.499023 13.5193 0.722628 13.5193 0.998416Z" fill="#10CE9C"/>
<path d="M5.61674 8.15463C7.03835 8.15463 8.19076 7.00222 8.19076 5.58061C8.19076 4.15924 7.03835 3.00684 5.61674 3.00684C4.19538 3.00684 3.04297 4.15924 3.04297 5.58061C3.04468 7.00149 4.19586 8.15292 5.61674 8.15463ZM5.61674 4.00562C6.48678 4.00562 7.19197 4.71082 7.19197 5.58061C7.19197 6.45064 6.48678 7.15584 5.61674 7.15584C4.74695 7.15584 4.04175 6.45064 4.04175 5.58061C4.04273 4.71131 4.74744 4.00684 5.61674 4.00562Z" fill="white"/>
<path d="M28.0106 22.184L27.8177 17.1453L28.7575 15.8529L27.618 13.7583L27.8468 13.0543L29.9997 12.0294V9.94309L27.8468 8.91822L27.618 8.21424L28.7575 6.11962L27.531 4.43271L25.1869 4.8687L24.5878 4.4332L24.2781 2.06962L22.2954 1.4249L20.6551 3.15522H19.9148L18.2744 1.4249L16.2912 2.06962L16.1944 2.80676L9.2583 2.39369L8.79086 1.92624L8.66162 0.877471L6.78988 0.0996094L5.95593 0.75116H5.27975L4.44361 0.0996094L2.57089 0.876495L2.44214 1.92527L1.96275 2.40466L0.913973 2.53366L0.135868 4.40735L0.788638 5.24325V5.92089L0.135868 6.75337L0.754743 8.24618L0.065641 17.0814C0.050035 17.194 0.0412566 17.3074 0.0390621 17.4208V17.4393H0.0361359V17.4784C0.0346728 18.4915 0.546257 19.4367 1.39532 19.9897C2.24438 20.5427 3.31583 20.6283 4.24195 20.2174L7.19734 18.986C6.71843 20.3382 7.27171 21.8397 8.51385 22.5576L3.94885 24.0285C2.43873 24.3296 1.40288 25.7266 1.55309 27.2592C1.7033 28.7917 2.99079 29.9607 4.53066 29.9632H4.557L22.9457 28.9987L23.2274 29.674L24.8153 29.9997L26.1042 28.7476L26.4325 28.6388L28.2147 28.8685L29.291 27.6559L28.8509 25.9136L28.9209 25.5745L30.0106 24.1458L29.5003 22.6076L28.0106 22.184ZM17.1991 2.82408L17.9833 2.5695L19.4854 4.154H21.0835L22.5856 2.5695L23.3703 2.82408L23.6534 4.98916L24.9467 5.92894L27.094 5.52952L27.578 6.19619L26.5354 8.11475L27.0296 9.63536L29.0009 10.5742V11.3984L27.0296 12.3372L26.5354 13.8578L27.578 15.7758L27.094 16.4425L24.9467 16.0431L23.6534 16.9829L23.3703 19.1477L22.5856 19.4025L21.0835 17.818H19.4854L17.9833 19.4025L17.1991 19.1477L16.9155 16.9838L15.6221 16.0436L13.4746 16.443L12.9903 15.7763L14.033 13.8587L13.5392 12.3376L11.568 11.3988V10.5746L13.5392 9.63585L14.033 8.11475L12.9903 6.19717L13.4746 5.5305L15.6221 5.92991L16.9155 4.98868L17.1991 2.82408ZM1.28462 4.25202L1.61405 3.45295L2.42775 3.35297L3.3924 2.38979L3.49238 1.57633L4.29145 1.24665L4.93715 1.75092H6.30292L6.94569 1.24811L7.74477 1.57779L7.8445 2.39076L8.80695 3.35565L9.62041 3.45539L9.95058 4.25446L9.44606 4.90016V6.26593L9.95058 6.91163L9.62041 7.7107L8.80695 7.81068L7.84206 8.77557L7.74208 9.58903L6.94325 9.91895L6.29755 9.41468H4.93422L4.28828 9.91895L3.48945 9.58903L3.38947 8.77557L2.42556 7.80556L1.61259 7.70583L1.28315 6.90675L1.78742 6.26105V4.89772L1.28462 4.25202ZM1.03492 17.4874L1.04077 17.4093C1.14148 16.3803 2.05199 15.6239 3.08223 15.7139C4.11247 15.8039 4.87814 16.7066 4.79865 17.7378C4.7194 18.7688 3.82474 19.5437 2.79303 19.4752C1.76109 19.4064 0.976885 18.5198 1.03492 17.4874ZM10.024 17.9777C11.1271 17.9777 12.0215 18.8722 12.0215 19.9753C12.0215 21.0785 11.1271 21.9729 10.024 21.9729C8.92058 21.9729 8.02641 21.0785 8.02641 19.9753C8.02641 18.8722 8.92058 17.9777 10.024 17.9777ZM2.5331 26.9668C2.53529 26.1909 2.98664 25.4867 3.69062 25.1604L4.17343 25.0051C4.9135 24.8736 5.66454 25.1692 6.11662 25.7695C6.56871 26.3701 6.64479 27.1736 6.31389 27.8483C5.98275 28.523 5.30048 28.9544 4.5492 28.9644H4.52457C3.42361 28.961 2.5331 28.0678 2.5331 26.9668ZM6.86474 28.841C7.40924 28.1668 7.63406 27.2892 7.48093 26.4362C7.32755 25.5832 6.81109 24.8388 6.06566 24.3964L10.9433 22.8273C11.9969 22.4986 12.7845 21.6169 12.993 20.533C13.2015 19.4491 12.7972 18.3384 11.9408 17.642C11.0842 16.9458 9.91424 16.7768 8.89571 17.2021L5.86156 18.4667C6.29975 17.2196 5.86741 15.8329 4.79816 15.0558C3.72866 14.2789 2.27633 14.2962 1.22561 15.0982L1.725 8.72704L1.96713 8.75704L2.44653 9.23643L2.57552 10.2852L4.44873 11.0601L5.28268 10.411H5.96032L6.79378 11.0601L8.66162 10.2872L8.79086 9.23838L9.27025 8.75899L10.319 8.62951L11.0942 6.75752L10.4448 5.92382V5.24325L11.0942 4.4093L10.7106 3.48245L16.0667 3.79945L15.9838 4.43369L15.3844 4.8687L13.0408 4.43271L11.8143 6.11962L12.9533 8.21424L12.725 8.91675L10.5721 9.94309V12.0294L12.7245 13.0543L12.9533 13.7583L11.8143 15.8529L13.0408 17.5398L15.3844 17.1038L15.9838 17.5388L16.2932 19.9029L18.2764 20.5476L19.917 18.8173H20.657L22.2974 20.5476L24.2805 19.9029L24.5902 17.5393L25.1893 17.1038L26.8314 17.4093L26.9509 20.5342L26.8233 20.2289L25.2349 19.9024L23.9431 21.1538L23.6148 21.2633L21.8326 21.0336L20.7563 22.246L21.1954 23.9885L21.1254 24.3274L20.0357 25.7559L20.5475 27.2943L22.2759 27.7859L22.5351 28.0156V28.019L6.86474 28.841ZM27.9892 25.1499L27.8272 25.9361L28.1933 27.3877L27.8182 27.8098L26.3335 27.6196L25.5724 27.8722L24.4983 28.9144L23.9455 28.8015L23.3691 27.4203L22.7699 26.8873L21.33 26.4779L21.1513 25.9414L22.0594 24.7515L22.2205 23.9661L21.8545 22.5142L22.2296 22.0916L23.7143 22.2826L24.4759 22.0297L25.5505 20.987L26.1033 21.1009L26.6802 22.4828L27.2793 23.0146L28.7192 23.4235L28.8975 23.96L27.9892 25.1499Z" fill="white"/>
<path d="M4.03175 17.4783C4.03175 18.0298 3.58454 18.4771 3.03296 18.4771C2.48139 18.4771 2.03418 18.0298 2.03418 17.4783C2.03418 16.9267 2.48139 16.4795 3.03296 16.4795C3.58454 16.4795 4.03175 16.9267 4.03175 17.4783Z" fill="white"/>
<path d="M11.023 19.9753C11.023 20.5269 10.5757 20.9741 10.0242 20.9741C9.4726 20.9741 9.02539 20.5269 9.02539 19.9753C9.02539 19.4238 9.4726 18.9766 10.0242 18.9766C10.5757 18.9766 11.023 19.4238 11.023 19.9753Z" fill="white"/>
<path d="M5.52882 26.9675C5.52882 27.5191 5.08161 27.9663 4.53003 27.9663C3.97846 27.9663 3.53125 27.5191 3.53125 26.9675C3.53125 26.416 3.97846 25.9688 4.53003 25.9688C5.08161 25.9688 5.52882 26.416 5.52882 26.9675Z" fill="#10CE9C"/>
<path d="M25.0057 22.4727C23.6266 22.4727 22.5088 23.5907 22.5088 24.9696C22.5088 26.3485 23.6266 27.4666 25.0057 27.4666C26.3847 27.4666 27.5027 26.3485 27.5027 24.9696C27.501 23.5912 26.384 22.4744 25.0057 22.4727ZM25.0057 26.4678C24.1784 26.4678 23.5076 25.797 23.5076 24.9696C23.5076 24.1423 24.1784 23.4714 25.0057 23.4714C25.8331 23.4714 26.5039 24.1423 26.5039 24.9696C26.5039 25.797 25.8331 26.4678 25.0057 26.4678Z" fill="white"/>
<path d="M20.0115 15.981C22.7696 15.981 25.0054 13.7452 25.0054 10.9871C25.0054 8.22897 22.7696 5.99316 20.0115 5.99316C17.2534 5.99316 15.0176 8.22897 15.0176 10.9871C15.0205 13.744 17.2546 15.9781 20.0115 15.981ZM20.0115 6.99195C22.2178 6.99195 24.0066 8.78054 24.0066 10.9871C24.0066 13.1936 22.2178 14.9822 20.0115 14.9822C17.805 14.9822 16.0164 13.1936 16.0164 10.9871C16.0188 8.78176 17.8059 6.99439 20.0115 6.99195Z" fill="white"/>
<path d="M20.011 13.9829C21.6657 13.9829 23.0073 12.6413 23.0073 10.9866C23.0073 9.33186 21.6657 7.99023 20.011 7.99023C18.356 7.99023 17.0146 9.33186 17.0146 10.9866C17.0164 12.6408 18.3568 13.9812 20.011 13.9829ZM20.011 8.98902C21.1141 8.98902 22.0086 9.88344 22.0086 10.9866C22.0086 12.0897 21.1141 12.9842 20.011 12.9842C18.9076 12.9842 18.0134 12.0897 18.0134 10.9866C18.0134 9.88344 18.9076 8.98902 20.011 8.98902Z" fill="white"/>
<path d="M27.0029 1.49818C27.0029 2.32554 27.6737 2.99635 28.5011 2.99635C29.3285 2.99635 29.9993 2.32554 29.9993 1.49818C29.9993 0.670815 29.3285 0 28.5011 0C27.6737 0 27.0029 0.670815 27.0029 1.49818ZM29.0005 1.49818C29.0005 1.77396 28.7769 1.99757 28.5011 1.99757C28.2253 1.99757 28.0017 1.77396 28.0017 1.49818C28.0017 1.22239 28.2253 0.998785 28.5011 0.998785C28.7769 0.998785 29.0005 1.22239 29.0005 1.49818Z" fill="white"/>
<path d="M14.0191 0.998785C14.0191 1.55036 13.5718 1.99757 13.0203 1.99757C12.4687 1.99757 12.0215 1.55036 12.0215 0.998785C12.0215 0.44721 12.4687 0 13.0203 0C13.5718 0 14.0191 0.44721 14.0191 0.998785Z" fill="white"/>
</svg>
