<svg width="30" height="32" viewBox="0 0 30 32" fill="none" xmlns="http://www.w3.org/2000/svg">
<g clip-path="url(#clip0)">
<path d="M15.0002 12.548C16.3295 12.548 17.4072 11.402 17.4072 9.98836C17.4072 8.57471 16.3295 7.42871 15.0002 7.42871C13.6708 7.42871 12.5931 8.57471 12.5931 9.98836C12.5931 11.402 13.6708 12.548 15.0002 12.548Z" fill="white"/>
<path d="M29.9706 3.8838V0H28.2093V3.10841L26.3307 5.10619V9.05242H24.3346V7.05464H22.4318C22.3632 6.85861 22.288 6.6657 22.2058 6.47529L23.5514 5.04438L19.6496 0.895253L18.3041 2.32616C18.125 2.23876 17.9436 2.15885 17.7592 2.0858V0.0624305H12.2406V2.0858C12.0563 2.15885 11.8749 2.23876 11.6958 2.32616L10.3502 0.895253L6.44847 5.04438L7.79407 6.47529C7.71188 6.6657 7.63673 6.85861 7.56804 7.05464H5.6653V9.05242H3.66922V5.10619L1.79055 3.10841V0H0.0292969V3.8838L1.90797 5.88157V22.038H0.0292969V31.902H7.42656V27.9064H10.362V31.902H19.6379V27.9064H22.5733V31.902H29.9706V22.038H28.0919V5.88157L29.9706 3.8838ZM14.9999 5.55631C17.2984 5.55631 19.1682 7.54472 19.1682 9.98888C19.1682 12.433 17.2984 14.4214 14.9999 14.4214C12.7015 14.4214 10.8316 12.433 10.8316 9.98888C10.8316 7.54472 12.7015 5.55631 14.9999 5.55631ZM10.362 26.0335H7.42656V22.038H3.66922V10.9253H5.6653V12.9231H7.56804C7.63673 13.1191 7.71188 13.312 7.79407 13.5025L6.44847 14.9334L10.3502 19.0825L11.6958 17.6516C11.8749 17.739 12.0563 17.8189 12.2406 17.8919V19.9153H14.1193V22.038H10.362V26.0335ZM15.8806 27.9064H14.1193V26.0335H15.8806V27.9064ZM26.3307 22.038H22.5733V26.0335H19.6379V22.038H15.8806V19.9153H17.7592V17.8919C17.9436 17.8189 18.125 17.739 18.3041 17.6516L19.6496 19.0825L23.5514 14.9334L22.2058 13.5025C22.288 13.312 22.3632 13.1191 22.4318 12.9231H24.3346V10.9253H26.3307V22.038Z" fill="white"/>
</g>
<defs>
<clipPath id="clip0">
<rect width="30" height="31.902" fill="white"/>
</clipPath>
</defs>
</svg>
