<svg width="30" height="30" viewBox="0 0 30 30" fill="none" xmlns="http://www.w3.org/2000/svg">
<path d="M29.6646 12.6401C29.5713 12.5934 28.2187 12.2203 27.1925 11.9405C26.866 10.7278 26.3996 9.56169 25.7466 8.48892L27.0059 6.25008C27.0992 6.06351 27.0992 5.8303 26.9127 5.69037L24.3007 3.0784C24.1608 2.93847 23.9276 2.89183 23.741 2.98511L21.4555 4.24446C20.3827 3.59147 19.2167 3.12504 18.004 2.84519L17.3043 0.326497C17.2577 0.139927 17.0711 0 16.8379 0H13.1532C12.9199 0 12.78 0.139927 12.6867 0.326497L11.9871 2.84519C10.7744 3.12504 9.65498 3.63811 8.53556 4.2911L6.25008 3.03176C6.06351 2.93847 5.8303 2.93847 5.69037 3.12504L3.0784 5.73702C2.93847 5.87694 2.89183 6.11015 2.98511 6.29672L4.24446 8.53556C3.59146 9.60833 3.12504 10.7744 2.79854 11.9871L0.326497 12.6867C0.139927 12.7334 0 12.9199 0 13.1532V16.8379C0 17.0711 0.139927 17.211 0.326497 17.3043L2.79854 18.004C3.12504 19.2167 3.59146 20.3827 4.24446 21.4555L2.98511 23.6943C2.89183 23.8809 2.89183 24.1141 3.0784 24.254L5.69037 26.866C5.8303 27.0059 6.06351 27.0526 6.25008 26.9593L8.53556 25.7C9.60833 26.353 10.7744 26.8194 11.9871 27.1459L12.6867 29.6646C12.7334 29.8511 12.9199 29.9911 13.1532 29.9911H16.8379C17.0245 29.9911 17.211 29.8511 17.3043 29.6646L18.004 27.1459C19.2167 26.866 20.3827 26.353 21.4555 25.7L23.741 26.9593C23.9276 27.0526 24.1608 27.0059 24.3007 26.866L26.9127 24.254C27.0526 24.1141 27.0992 23.8809 27.0059 23.6943L25.7466 21.4555C26.3996 20.3827 26.866 19.2167 27.1925 18.004L29.6646 17.3043C29.8511 17.2577 29.9911 17.0711 29.9911 16.8379V13.1998C30.0377 12.8733 29.8978 12.6867 29.6646 12.6401ZM15.1121 22.3884C11.0076 22.3884 7.64935 19.0301 7.64935 14.9256C7.64935 10.821 11.0076 7.46278 15.1121 7.46278C19.2167 7.46278 22.5749 10.821 22.5749 14.9256C22.5749 19.0301 19.2167 22.3884 15.1121 22.3884Z" fill="white"/>
<path d="M12.4992 13.1999C12.4992 11.7539 13.6653 10.5879 15.1112 10.5879C16.5571 10.5879 17.7232 11.7539 17.7232 13.1999C17.7232 14.6458 16.5571 15.8118 15.1112 15.8118C13.6653 15.8118 12.4992 14.6458 12.4992 13.1999Z" fill="white"/>
<path d="M20.382 19.077C20.2887 19.1702 20.1488 19.2635 20.0089 19.2635H10.1673C10.0274 19.2635 9.88749 19.2169 9.7942 19.077C9.70092 18.9837 9.65427 18.8437 9.70092 18.7038C10.0274 17.3978 10.7737 16.2318 11.8465 15.4855C12.033 15.3456 12.3129 15.3922 12.4528 15.5321C13.1058 16.2784 14.0853 16.6982 15.0648 16.6982C16.0443 16.6982 17.0238 16.2784 17.6768 15.5321C17.8167 15.3456 18.0965 15.3456 18.2831 15.4855C19.3559 16.2784 20.1022 17.3978 20.4287 18.7038C20.522 18.8437 20.4753 18.9837 20.382 19.077Z" fill="white"/>
</svg>
