<svg width="21" height="30" viewBox="0 0 21 30" fill="none" xmlns="http://www.w3.org/2000/svg">
<path d="M13.9039 19.6391C13.9039 21.6796 12.3393 23.3433 10.391 23.3433C8.47222 23.3433 6.90767 21.6796 6.90767 19.6391C6.90767 19.3252 6.93719 18.9799 7.02575 18.6974H0.738037V20.5809C0.738037 20.9576 1.00372 21.3029 1.38747 21.3343L3.24722 21.554C3.48338 21.5854 3.6605 21.7424 3.71953 21.9621C3.83761 22.3388 3.98521 22.7155 4.13281 23.0608C4.25089 23.2805 4.22137 23.5317 4.07377 23.6886L2.89298 25.2582C2.65682 25.5407 2.68634 25.9802 2.95202 26.2627L4.19185 27.5498C4.45753 27.8323 4.84129 27.8637 5.13648 27.6125L6.61247 26.3569C6.78959 26.1999 7.02575 26.1999 7.20287 26.2941C7.55711 26.4824 7.88182 26.608 8.23606 26.7336C8.4427 26.7964 8.61982 26.9847 8.61982 27.2358L8.82646 29.2135C8.85598 29.5902 9.18069 29.9041 9.53493 29.9041H11.2766C11.6308 29.9041 11.926 29.6216 11.9851 29.2135L12.1622 27.2358C12.1917 26.9847 12.3393 26.7964 12.5459 26.7336C12.9002 26.608 13.2544 26.4511 13.5791 26.2941C13.7858 26.1685 14.0219 26.1999 14.1991 26.3569L15.6455 27.6125C15.9407 27.8637 16.3245 27.8323 16.5902 27.5498L17.83 26.2313C18.0957 25.9488 18.0957 25.5407 17.889 25.2268L16.7082 23.6572C16.5606 23.4689 16.5606 23.2178 16.6492 23.0294C16.8263 22.6527 16.9739 22.3074 17.092 21.9307C17.151 21.711 17.3282 21.5226 17.5643 21.5226L19.4536 21.3029C19.8078 21.2715 20.0735 20.9262 20.0735 20.5495C20.0735 20.5495 20.0735 18.6974 20.0735 18.666H13.7858C13.8448 18.9799 13.9039 19.2938 13.9039 19.6391Z" fill="white"/>
<path d="M20.103 14.3659H15.9702V7.6168C15.9702 7.30289 15.734 7.05176 15.4388 7.05176H13.6677C13.3725 7.05176 13.1363 7.30289 13.1363 7.6168V14.3659H11.8374V9.87697C11.8374 9.56306 11.6013 9.31193 11.3061 9.31193H9.53489C9.23969 9.31193 9.00353 9.56306 9.00353 9.87697V14.3659H7.70466V12.1371C7.70466 11.8232 7.4685 11.5721 7.17331 11.5721H5.40212C5.10692 11.5721 4.87076 11.8232 4.87076 12.1371V14.3659H0.737994C0.324717 14.3659 0 14.7112 0 15.1507V16.1238C0 16.5633 0.324717 16.9086 0.737994 16.9086H20.162C20.5753 16.9086 20.9 16.5633 20.9 16.1238V15.1507C20.841 14.7112 20.5162 14.3659 20.103 14.3659Z" fill="white"/>
<path d="M5.78597 10.1592L12.6346 4.3832L13.4021 5.29354C13.7268 5.67024 14.3172 5.51328 14.4353 5.01102L15.3799 0.867369C15.4685 0.427891 15.1437 0.0198042 14.7305 0.0825868L10.7453 0.64763C10.273 0.710413 10.0663 1.30685 10.3911 1.68354L11.1586 2.59389L4.98894 9.18606C4.7823 9.4058 4.75278 9.7825 4.9299 10.065C5.13654 10.3162 5.52029 10.3789 5.78597 10.1592Z" fill="white"/>
</svg>
