<svg width="30" height="32" viewBox="0 0 30 32" fill="none" xmlns="http://www.w3.org/2000/svg">
<path d="M15 0L12.378 1.91599L9.25781 1.21502L7.51467 4.05006L4.39453 4.67314L3.80859 8.00665L1.14258 9.86033L1.78711 13.1626L0 15.951L1.78711 18.7549L1.14258 22.0572L3.80859 23.9109L4.39453 27.2444L7.51467 27.8675L9.25781 30.7025L12.378 30.0016L15 31.902L17.622 30.0016L20.7422 30.7025L22.4853 27.8675L25.6055 27.2444L26.1914 23.9109L28.8574 22.0572L28.2129 18.7549L30 15.951L28.2129 13.1626L28.8574 9.86033L26.1914 8.00665L25.6055 4.67314L22.4853 4.05006L20.7422 1.21502L17.622 1.91599L15 0ZM15 4.50179C20.9488 4.50179 25.7812 9.64062 25.7812 15.9665C25.7812 22.2924 20.9488 27.4313 15 27.4313C9.05123 27.4313 4.21875 22.2924 4.21875 15.9665C4.21875 9.64062 9.05123 4.50179 15 4.50179V4.50179ZM15 5.49873C9.55791 5.49873 5.15625 10.1794 5.15625 15.9665C5.15625 21.7537 9.55791 26.4344 15 26.4344C20.4421 26.4344 24.8438 21.7537 24.8438 15.9665C24.8438 10.1794 20.4421 5.49873 15 5.49873ZM19.5556 10.9819L21.6064 13.0225L14.5752 20.998L13.6377 22.0572L12.6123 21.0914L8.39358 17.1037L10.2686 14.8761L13.4619 17.8981L19.5556 10.9819Z" fill="white"/>
</svg>
