<svg width="30" height="28" viewBox="0 0 30 28" fill="none" xmlns="http://www.w3.org/2000/svg">
<path d="M27.4674 2.5383C24.0835 -0.846099 18.597 -0.846099 15.2132 2.5383L15.0008 2.75073L14.7884 2.5383C11.4046 -0.846099 5.91805 -0.846099 2.5342 2.5383C0.181262 4.89205 -0.53126 8.26154 0.38855 11.2351H7.74915L12.0379 4.34671L16.6391 17.5029L19.6837 11.2935H29.5922C30.5405 8.30582 29.8361 4.90737 27.4674 2.5383Z" fill="white"/>
<path d="M16.341 22.3716L11.5466 8.66113L8.85318 12.9872H1.1593C1.53131 13.6322 1.98334 14.243 2.53412 14.7948L2.74652 15.0072L15.0007 27.2634L27.2549 15.0072L27.4673 14.7948C28.0019 14.2601 28.442 13.6688 28.8072 13.0459H20.9141L16.341 22.3716Z" fill="white"/>
</svg>
