<svg width="30" height="32" viewBox="0 0 30 32" fill="none" xmlns="http://www.w3.org/2000/svg">
<g clip-path="url(#clip0)">
<path d="M10.2036 3.48756H12.2443V0.232422H10.2036C9.35989 0.232422 8.6731 0.962761 8.6731 1.85999C8.6731 2.75748 9.35989 3.48756 10.2036 3.48756Z" fill="white"/>
<path d="M13.2646 0.232422H14.2849V3.48756H13.2646V0.232422Z" fill="white"/>
<path d="M4.08131 3.16992L0.721313 6.74295H4.08131V3.16992Z" fill="white"/>
<path d="M27.0394 0.703125V3.01653L28.6703 1.85969L27.0394 0.703125Z" fill="white"/>
<path d="M15.3054 0.232422H26.0192V1.31747H15.3054V0.232422Z" fill="white"/>
<path d="M26.0192 3.48739V2.40234H15.3054V3.48739H26.0192Z" fill="white"/>
<path d="M13.7748 18.8669C13.0714 18.4508 12.3913 17.9946 11.7341 17.5029V24.1027H13.7748V18.8669Z" fill="white"/>
<path d="M10.7138 16.6898C9.99861 16.0882 9.31754 15.4421 8.6731 14.751V24.1034H10.7138V16.6898Z" fill="white"/>
<path d="M6.94736 12.6944L5.85999 11.083H5.61212V24.1036H7.65284V13.5829C7.41917 13.2965 7.18301 13.0128 6.96155 12.714L6.94736 12.6944Z" fill="white"/>
<path d="M16.8358 20.3818C16.1373 20.1029 15.4605 19.7763 14.7951 19.4287V24.1029H16.8358V20.3818Z" fill="white"/>
<path d="M24.9988 21.9336C22.4669 21.9336 20.4072 24.1243 20.4072 26.8163C20.4072 29.5082 22.4669 31.699 24.9988 31.699C27.5308 31.699 29.5904 29.5082 29.5904 26.8163C29.5904 24.1243 27.5308 21.9336 24.9988 21.9336ZM24.9988 26.2738C25.8426 26.2738 26.5294 27.0041 26.5294 27.9013C26.5294 28.6078 26.1014 29.2047 25.509 29.429V30.614H24.4887V29.429C23.8963 29.2047 23.4683 28.6078 23.4683 27.9013H24.4887C24.4887 28.2004 24.7173 28.4439 24.9988 28.4439C25.2803 28.4439 25.509 28.2004 25.509 27.9013C25.509 27.6025 25.2803 27.3588 24.9988 27.3588C24.1551 27.3588 23.4683 26.6287 23.4683 25.7313C23.4683 25.025 23.8963 24.4282 24.4887 24.2036V23.0186H25.509V24.2036C26.1014 24.4282 26.5294 25.025 26.5294 25.7313H25.509C25.509 25.4324 25.2803 25.1887 24.9988 25.1887C24.7173 25.1887 24.4887 25.4324 24.4887 25.7313C24.4887 26.0303 24.7173 26.2738 24.9988 26.2738V26.2738Z" fill="white"/>
<path d="M27.3947 18.6777L25.7356 19.8539L26.3016 20.7567L29.9999 18.1352L26.3021 15.5137L25.7361 16.4165L27.3947 17.5926H26.7714C24.2377 17.5926 21.7436 17.1251 19.3865 16.2565V17.3974C21.7518 18.2287 24.2424 18.6777 26.7719 18.6777H27.3947Z" fill="white"/>
<path d="M7.9384 8.77593L8.7495 8.11738C11.4745 11.9095 15.2119 14.7188 19.3868 16.2568V4.57244H10.2036C8.97196 4.57244 7.94139 3.63891 7.70424 2.40234H5.10178V7.82757H0V26.2733H19.3868V17.3983C14.8906 15.8195 10.8582 12.839 7.9384 8.77593ZM18.3664 11.0827H13.2646V9.99766H18.3664V11.0827ZM18.3664 8.91262H11.2239V7.82757H18.3664V8.91262ZM9.1832 5.65748H18.3664V6.74253H9.1832V5.65748ZM17.5179 19.4923L17.8562 19.6211V25.1883H4.5916V9.99766H6.38445L7.7695 12.0512C10.2995 15.4555 13.6702 18.0282 17.5179 19.4923Z" fill="white"/>
</g>
<defs>
<clipPath id="clip0">
<rect width="30" height="31.902" fill="white"/>
</clipPath>
</defs>
</svg>
