<svg width="30" height="30" viewBox="0 0 30 30" fill="none" xmlns="http://www.w3.org/2000/svg">
<path d="M5.33203 24.7266H0V26.4844H5.33203V24.7266Z" fill="white"/>
<path d="M5.33203 21.2109H0V22.9688H5.33203V21.2109Z" fill="white"/>
<path d="M5.33203 17.6953H0V19.4531H5.33203V17.6953Z" fill="white"/>
<path d="M5.33203 14.1797H0V15.9375H5.33203V14.1797Z" fill="white"/>
<path d="M5.33203 10.6641H0V12.4219H5.33203V10.6641Z" fill="white"/>
<path d="M7.08984 30H30V10.6641H7.08984V30ZM24.0466 21.4685L25.2894 22.7113L23.2741 24.7266L25.2894 26.7419L24.0466 27.9847L22.0312 25.9694L20.0159 27.9847L18.7731 26.7419L20.7884 24.7266L18.7731 22.7112L20.0159 21.4684L22.0312 23.4837L24.0466 21.4685ZM11.4844 24.7266H13.2422V25.6055C13.2422 26.0904 13.6362 26.4844 14.1211 26.4844C14.606 26.4844 15 26.0904 15 25.6055V19.4531H13.2422V17.6953H15V15.0586C15 13.6046 16.1828 12.4219 17.6367 12.4219C19.0907 12.4219 20.2734 13.6046 20.2734 15.0586V15.9375H18.5156V15.0586C18.5156 14.5737 18.1216 14.1797 17.6367 14.1797C17.1518 14.1797 16.7578 14.5737 16.7578 15.0586V17.6953H18.5156V19.4531H16.7578V25.6055C16.7578 27.0594 15.575 28.2422 14.1211 28.2422C12.6671 28.2422 11.4844 27.0594 11.4844 25.6055V24.7266Z" fill="white"/>
<path d="M0 8.90625H30V0H0V8.90625ZM15.8789 3.57422H26.4258V5.33203H15.8789V3.57422ZM10.6055 3.57422H12.3633V5.33203H10.6055V3.57422ZM7.08984 3.57422H8.84766V5.33203H7.08984V3.57422ZM3.57422 3.57422H5.33203V5.33203H3.57422V3.57422Z" fill="white"/>
</svg>
