<svg width="32" height="32" viewBox="0 0 32 32" fill="none" xmlns="http://www.w3.org/2000/svg">
<g clip-path="url(#clip0)">
<path d="M25.7778 12.3791C25.3498 7.88201 21.5572 4.35938 16.9416 4.35938C13.386 4.35938 10.3243 6.44003 8.90864 9.44909C8.43457 9.27131 7.92099 9.17913 7.39424 9.17913C4.94486 9.17913 2.96296 11.161 2.96296 13.6104C2.96296 14.1437 3.05514 14.6573 3.23292 15.1314C1.3037 16.2573 0 18.3577 0 20.7544C0 24.231 2.73251 27.4376 6.16296 27.6285H12.1547H13.5506V20.6886H10.377C9.73169 20.6886 9.40247 19.9116 9.85021 19.4507L15.4733 13.6631C15.763 13.3668 16.237 13.3668 16.5202 13.6631L22.1432 19.4507C22.5909 19.9116 22.2683 20.6886 21.6165 20.6886H18.4428V27.6417H19.8321H25.0074C28.9119 27.3651 32 23.9347 32 19.9709C32.0066 16.2639 29.3136 12.9849 25.7778 12.3791Z" fill="white"/>
</g>
<defs>
<clipPath id="clip0">
<rect width="32" height="32" fill="white"/>
</clipPath>
</defs>
</svg>
