<svg width="30" height="30" viewBox="0 0 30 30" fill="none" xmlns="http://www.w3.org/2000/svg">
<path d="M12.5669 11.1874C19.5074 11.1874 25.1338 8.68301 25.1338 5.59369C25.1338 2.50438 19.5074 0 12.5669 0C5.6264 0 0 2.50438 0 5.59369C0 8.68301 5.6264 11.1874 12.5669 11.1874Z" fill="white"/>
<path d="M15.4771 26.137C14.5961 25.9127 13.9383 25.1944 13.7721 24.317C13.3747 24.3344 12.9725 24.3437 12.5669 24.3437C5.62507 24.3437 0 21.8415 0 18.75C0 20.04 0 20.9024 0 23.0269C0 26.1172 5.62507 28.6206 12.5669 28.6206C13.5653 28.6206 14.5322 28.5637 15.4643 28.4649C15.0599 27.7478 15.0413 26.8622 15.4771 26.137Z" fill="white"/>
<path d="M12.5669 22.8089C12.9597 22.8089 13.3456 22.7984 13.7291 22.7833V22.1418C13.7291 21.0679 14.4625 20.144 15.4887 19.8883C15.2191 19.4315 15.1203 18.912 15.1842 18.4111C14.3393 18.4901 13.4653 18.5331 12.5669 18.5331C5.62507 18.5331 0 16.0309 0 12.9395C0 14.2295 0 15.0919 0 17.2164C0.00116221 20.3055 5.62507 22.8089 12.5669 22.8089Z" fill="white"/>
<path d="M12.5667 16.9976C13.808 16.9976 15.005 16.915 16.1382 16.7651L17.0773 15.8261C17.527 15.3751 18.1221 15.145 18.7218 15.145C19.1251 15.145 19.5295 15.2496 19.8933 15.4623C20.1583 14.45 21.0764 13.7283 22.141 13.7283H23.8843C23.9157 13.7283 23.9471 13.7352 23.9773 13.7364C24.7129 13.0263 25.1325 12.2372 25.1325 11.4039C25.1325 10.2684 25.1325 9.08527 25.1325 7.12695C25.1325 10.2173 19.5074 12.7206 12.5656 12.7206C5.62373 12.7206 0.000976562 10.2173 0.000976562 7.12695C0.000976562 8.417 0.000976562 9.27936 0.000976562 11.4039C0.000976562 14.4942 5.62489 16.9976 12.5667 16.9976Z" fill="white"/>
<path d="M30.0002 23.8837V22.1404L27.9256 21.801C27.8036 21.3106 27.6107 20.8492 27.3562 20.4238L28.5648 18.7014L27.3317 17.4683L25.6303 18.6921C25.2061 18.4353 24.7412 18.2388 24.2473 18.1168L23.8846 16.0527H22.1413L21.8055 18.111C21.3104 18.2319 20.8432 18.4248 20.4178 18.6793L18.721 17.4683L17.4879 18.7014L18.6815 20.4075C18.4223 20.8352 18.2259 21.3013 18.1027 21.7998L16.0537 22.1404V23.8837L18.1015 24.2463C18.2235 24.7449 18.42 25.2121 18.6803 25.6398L17.4704 27.3308L18.7035 28.565L20.412 27.3691C20.8397 27.626 21.3057 27.8189 21.7997 27.9409L22.1413 29.9992H23.8846L24.2507 27.9351C24.7424 27.8119 25.2072 27.6143 25.6314 27.3575L27.3527 28.565L28.5846 27.3308L27.3562 25.6258C27.6107 25.2016 27.8036 24.7391 27.9245 24.2463L30.0002 23.8837ZM23.0269 25.4573C21.6858 25.4573 20.5956 24.3695 20.5956 23.026C20.5956 21.6848 21.6858 20.5946 23.0269 20.5946C24.3704 20.5946 25.4583 21.6848 25.4583 23.026C25.4583 24.3695 24.3704 25.4573 23.0269 25.4573Z" fill="white"/>
</svg>
