<svg width="30" height="31" viewBox="0 0 30 31" fill="none" xmlns="http://www.w3.org/2000/svg">
<path d="M20.9896 4.49512H19.7313C19.6109 4.23728 19.4706 3.99078 19.3112 3.75685L19.94 2.65387C20.1468 2.29117 20.0241 1.82742 19.6659 1.61806L17.0724 0.101589C16.9004 0.00100463 16.696 -0.0261738 16.5043 0.0258094C16.3125 0.0779113 16.149 0.204962 16.0497 0.379129L15.4219 1.48033C15.1386 1.45594 14.8615 1.45594 14.5782 1.48033L13.9504 0.379129C13.8511 0.204962 13.6875 0.0779113 13.4958 0.0258094C13.3041 -0.0261738 13.0997 0.00100463 12.9277 0.101589L10.3342 1.61812C9.97603 1.82748 9.85333 2.29123 10.0601 2.65393L10.6889 3.75697C10.5295 3.99084 10.3892 4.2374 10.2688 4.49518H9.01046C8.59696 4.49518 8.26175 4.83467 8.26175 5.25345V8.28645C8.26175 8.70523 8.59696 9.04472 9.01046 9.04472H10.2688C10.3892 9.30244 10.5295 9.54901 10.6889 9.78287L10.0601 10.8859C9.85333 11.2486 9.97603 11.7124 10.3342 11.9217L12.9277 13.4383C13.0996 13.5388 13.304 13.566 13.4958 13.514C13.6876 13.4619 13.8511 13.3349 13.9504 13.1607L14.5782 12.0594C14.8615 12.0839 15.1386 12.0839 15.4219 12.0594L16.0497 13.1606C16.149 13.3348 16.3125 13.4618 16.5043 13.5139C16.568 13.5312 16.6332 13.5397 16.6981 13.5397C16.8284 13.5397 16.9577 13.5052 17.0724 13.4381L19.666 11.9216C20.0241 11.7122 20.1468 11.2485 19.94 10.8858L19.3113 9.78281C19.4706 9.54895 19.6109 9.30244 19.7314 9.0446H20.9897C21.4032 9.0446 21.7384 8.70511 21.7384 8.28634V7.52807V6.01154V5.25339C21.7383 4.83461 21.4031 4.49512 20.9896 4.49512ZM15 8.99517C13.7884 8.99517 12.8028 7.99699 12.8028 6.76986C12.8028 5.54274 13.7884 4.54455 15 4.54455C16.2117 4.54455 17.1973 5.54274 17.1973 6.76986C17.1973 7.99699 16.2117 8.99517 15 8.99517Z" fill="white"/>
<path d="M4.68751 9.6079V7.66013H6.50392V5.87988H3.8086C3.32321 5.87988 2.92969 6.27842 2.92969 6.77001V9.6079C2.24831 9.77014 1.62282 10.1203 1.11551 10.6341C0.396153 11.3626 0 12.3312 0 13.3615C0 14.3918 0.396153 15.3605 1.11551 16.0889C1.45869 16.4365 2.01522 16.4365 2.35846 16.0889C2.7017 15.7414 2.7017 15.1778 2.35846 14.8301C1.55889 14.0204 1.55889 12.7026 2.35846 11.8928C2.74583 11.5006 3.26081 11.2845 3.8086 11.2845C4.3564 11.2845 4.87138 11.5006 5.25874 11.8928C6.05831 12.7026 6.05831 14.0204 5.25874 14.8301C4.9155 15.1777 4.9155 15.7413 5.25874 16.0889C5.43036 16.2628 5.6553 16.3497 5.88019 16.3497C6.10507 16.3497 6.33007 16.2628 6.50163 16.0889C7.22099 15.3605 7.61714 14.3918 7.61714 13.3615C7.61714 12.3312 7.22099 11.3625 6.50163 10.634C5.99439 10.1203 5.3689 9.77014 4.68751 9.6079Z" fill="white"/>
<path d="M28.8845 10.6341C28.3772 10.1203 27.7517 9.7702 27.0704 9.6079V6.77001C27.0704 6.27842 26.6768 5.87988 26.1914 5.87988H23.4961V7.66013H25.3125V9.6079C24.6311 9.77014 24.0057 10.1203 23.4984 10.6341C22.779 11.3626 22.3828 12.3313 22.3828 13.3616C22.3828 14.3918 22.779 15.3605 23.4984 16.089C23.8415 16.4366 24.3981 16.4366 24.7413 16.089C25.0845 15.7414 25.0845 15.1778 24.7413 14.8302C23.9417 14.0204 23.9417 12.7027 24.7413 11.8929C25.1287 11.5007 25.6436 11.2846 26.1914 11.2846C26.7392 11.2846 27.2542 11.5007 27.6416 11.8929C28.4412 12.7027 28.4412 14.0204 27.6416 14.8302C27.2983 15.1778 27.2983 15.7414 27.6416 16.089C27.8132 16.2628 28.0381 16.3498 28.263 16.3498C28.4879 16.3498 28.7129 16.2628 28.8845 16.089C29.6038 15.3605 30 14.3918 30 13.3616C30 12.3313 29.6039 11.3626 28.8845 10.6341V10.6341Z" fill="white"/>
<path d="M2.40235 30.3831C3.69677 30.3831 4.7461 29.3203 4.7461 28.0094C4.7461 26.6985 3.69677 25.6357 2.40235 25.6357C1.10793 25.6357 0.0585938 26.6985 0.0585938 28.0094C0.0585938 29.3203 1.10793 30.3831 2.40235 30.3831Z" fill="white"/>
<path d="M15 30.3831C16.2945 30.3831 17.3438 29.3203 17.3438 28.0094C17.3438 26.6985 16.2945 25.6357 15 25.6357C13.7056 25.6357 12.6563 26.6985 12.6563 28.0094C12.6563 29.3203 13.7056 30.3831 15 30.3831Z" fill="white"/>
<path d="M18.3636 25.6357C18.8284 26.3092 19.1021 27.1273 19.1021 28.0094C19.1021 28.8915 18.8284 29.7097 18.3636 30.3831H24.2352C23.7704 29.7097 23.4966 28.8915 23.4966 28.0094C23.4966 27.1273 23.7704 26.3092 24.2352 25.6357H18.3636Z" fill="white"/>
<path d="M5.76593 25.6357C6.2307 26.3092 6.50445 27.1273 6.50445 28.0094C6.50445 28.8915 6.2307 29.7097 5.76593 30.3831H11.6375C11.1727 29.7097 10.899 28.8915 10.899 28.0094C10.899 27.1273 11.1727 26.3092 11.6375 25.6357H5.76593Z" fill="white"/>
<path d="M27.5977 30.3831C28.8921 30.3831 29.9415 29.3203 29.9415 28.0094C29.9415 26.6985 28.8921 25.6357 27.5977 25.6357C26.3033 25.6357 25.254 26.6985 25.254 28.0094C25.254 29.3203 26.3033 30.3831 27.5977 30.3831Z" fill="white"/>
<path d="M17.1973 18.5146H12.8028C12.3174 18.5146 11.9239 18.9132 11.9239 19.4048V23.8554H18.0762V19.4048C18.0762 18.9132 17.6827 18.5146 17.1973 18.5146Z" fill="white"/>
<path d="M8.40821 18.5146H4.01367C3.52828 18.5146 3.13477 18.9132 3.13477 19.4048V23.8554H9.28712V19.4048C9.28712 18.9132 8.89361 18.5146 8.40821 18.5146Z" fill="white"/>
<path d="M21.5918 18.5146C21.1064 18.5146 20.7129 18.9132 20.7129 19.4048V23.8554H26.8653V19.4048C26.8653 18.9132 26.4718 18.5146 25.9864 18.5146H21.5918Z" fill="white"/>
</svg>
