<svg width="30" height="30" viewBox="0 0 30 30" fill="none" xmlns="http://www.w3.org/2000/svg">
<g clip-path="url(#clip0)">
<path d="M17.6471 5.294C17.6471 4.68489 17.7246 4.09353 17.8704 3.5293H0V17.6469H26.4706V12.1295C25.9064 12.2752 25.315 12.3528 24.7059 12.3528C20.8136 12.3528 17.6471 9.18624 17.6471 5.294ZM14.1176 10.5881H17.6471V12.3528H14.1176V10.5881ZM12.3529 15.8822H3.52941V7.05871H12.3529V15.8822ZM21.1765 15.8822H14.1176V14.1175H21.1765V15.8822Z" fill="white"/>
<path d="M7.05859 26.4707H19.4115V30.0001H7.05859V26.4707Z" fill="white"/>
<path d="M0 22.9415H10.3405L9.89935 24.7062H16.5713L16.1301 22.9415H26.4706V19.4121H0V22.9415Z" fill="white"/>
<path d="M10.5881 8.82422H8.82336V10.5889H7.05865V8.82422H5.29395V14.1183H10.5881V8.82422Z" fill="white"/>
<path d="M24.7062 0C21.7823 0 19.4121 2.37029 19.4121 5.29412C19.4121 8.218 21.7823 10.5882 24.7062 10.5882C27.6301 10.5882 30.0004 8.218 30.0004 5.29412C30.0004 2.37029 27.6301 0 24.7062 0ZM24.2226 7.44129L22.0253 5.16271L23.2958 3.93777L24.2749 4.95329L26.1692 3.147L27.3871 4.42418L24.2226 7.44129Z" fill="white"/>
</g>
<defs>
<clipPath id="clip0">
<rect width="30" height="30" fill="white"/>
</clipPath>
</defs>
</svg>
