<svg width="30" height="30" viewBox="0 0 30 30" fill="none" xmlns="http://www.w3.org/2000/svg">
<path d="M8.84766 15.0002C8.84766 18.3926 11.6076 21.1525 15 21.1525C18.3924 21.1525 21.1523 18.3926 21.1523 15.0002C21.1523 12.9501 20.1504 11.0843 18.5156 9.9502V15.0002C18.5156 15.2941 18.3687 15.5685 18.1242 15.7315L15.4875 17.4893C15.1922 17.6861 14.8077 17.6861 14.5124 17.4893L11.8757 15.7315C11.6312 15.5685 11.4843 15.2941 11.4843 15.0002V9.9502C9.84961 11.0843 8.84766 12.9501 8.84766 15.0002Z" fill="white"/>
<path d="M16.7578 29.9999V22.7129C16.1923 22.8417 15.604 22.9101 15 22.9101C14.396 22.9101 13.8077 22.8417 13.2422 22.7129V29.9999H16.7578Z" fill="white"/>
<path d="M29.3306 11.5097L26.5757 10.8335C26.4456 10.4766 26.2956 10.1193 26.1269 9.76441L27.5617 7.37291C27.7692 7.02709 27.7147 6.58441 27.4296 6.29924L23.7006 2.57033C23.4155 2.28516 22.9728 2.23066 22.627 2.43814L20.2355 3.87305C19.8806 3.7043 19.5234 3.5543 19.1664 3.42416L18.4903 0.669375C18.3938 0.276387 18.0414 0 17.6367 0H12.3633C11.9586 0 11.6062 0.276387 11.5097 0.669375L10.8336 3.42416C10.4766 3.5543 10.1194 3.7043 9.76447 3.87305L7.37303 2.43814C7.02727 2.23066 6.58453 2.28516 6.29936 2.57033L2.57045 6.29924C2.28527 6.58441 2.23078 7.02709 2.43826 7.37291L3.87311 9.76441C3.70436 10.1193 3.55441 10.4766 3.42428 10.8335L0.669375 11.5097C0.276387 11.6062 0 11.9586 0 12.3633V17.6367C0 18.0414 0.276387 18.3938 0.669375 18.4903L3.42428 19.1665C3.55441 19.5234 3.70436 19.8807 3.87311 20.2356L2.43826 22.6271C2.23078 22.9729 2.28527 23.4156 2.57045 23.7008L6.29936 27.4297C6.58453 27.7148 7.02721 27.7693 7.37303 27.5619L9.76447 26.127C10.1194 26.2957 10.4766 26.4457 10.8336 26.5758L11.4844 29.2273V22.0845C8.88205 20.7879 7.08984 18.0995 7.08984 15C7.08984 13.3964 7.56926 11.8509 8.47617 10.5308C9.36088 9.24299 10.5907 8.25281 12.0326 7.6674C12.3036 7.55736 12.6116 7.58936 12.8541 7.75272C13.0968 7.91602 13.2422 8.18935 13.2422 8.4818V14.5297L15 15.7015L16.7578 14.5297V8.48174C16.7578 8.1893 16.9032 7.91602 17.1459 7.75266C17.3885 7.58936 17.6964 7.55736 17.9674 7.66734C19.4093 8.25275 20.6392 9.24293 21.5238 10.5307C22.4307 11.8509 22.9102 13.3964 22.9102 15C22.9102 18.0995 21.1179 20.7879 18.5156 22.0845V29.2273L19.1664 26.5758C19.5234 26.4456 19.8806 26.2956 20.2355 26.1269L22.627 27.5618C22.9727 27.7693 23.4155 27.7148 23.7006 27.4296L27.4296 23.7007C27.7147 23.4155 27.7692 22.9729 27.5617 22.627L26.1269 20.2355C26.2956 19.8807 26.4456 19.5234 26.5757 19.1665L29.3306 18.4903C29.7236 18.3938 30 18.0414 30 17.6367V12.3633C30 11.9586 29.7236 11.6062 29.3306 11.5097Z" fill="white"/>
</svg>
