<svg width="30" height="30" viewBox="0 0 30 30" fill="none" xmlns="http://www.w3.org/2000/svg">
<path d="M1.40625 20.1562H4.47937C4.31812 19.8792 4.21875 19.5619 4.21875 19.2188V16.4062C4.21875 14.4727 5.39578 12.8091 7.07109 12.0937C6.19922 11.5031 5.625 10.5047 5.625 9.375C5.625 7.56609 7.09688 6.09375 8.90625 6.09375C10.7156 6.09375 12.1875 7.56609 12.1875 9.375C12.1875 10.5047 11.6133 11.5031 10.7414 12.0937C12.1842 12.7102 13.2525 14.0311 13.5225 15.6211L15.3389 14.5312H16.4062V7.03125H19.2188V14.5312H20.1562V9.84375H22.9688V14.5312H23.9062V6.09375H26.7188V14.5312H27.6562V15.4688H15.5986L13.5938 16.6716V19.2188C13.5938 19.5619 13.4944 19.8792 13.3331 20.1562H28.5938V5.15625H1.40625V20.1562ZM25.7812 19.2188H21.0938V18.2812H25.7812V19.2188ZM25.7812 17.3438H21.0938V16.4062H25.7812V17.3438ZM27.6562 19.2188H26.7188V18.2812H27.6562V19.2188ZM27.6562 17.3438H26.7188V16.4062H27.6562V17.3438ZM2.34375 14.5312H3.28125V15.4688H2.34375V14.5312ZM2.34375 16.4062H3.28125V17.3438H2.34375V16.4062ZM2.34375 18.2812H3.28125V19.2188H2.34375V18.2812Z" fill="white"/>
<path d="M21.0938 10.7812H22.0312V14.5312H21.0938V10.7812Z" fill="white"/>
<path d="M8.90625 12.6562C6.83859 12.6562 5.15625 14.3386 5.15625 16.4062V19.2188C5.15625 19.7358 5.57672 20.1562 6.09375 20.1562V15.9375H7.03125V27.8906C7.03125 28.2783 7.34672 28.5938 7.73438 28.5938C8.12203 28.5938 8.4375 28.2783 8.4375 27.8906V19.2188H9.375V27.8906C9.375 28.2783 9.69047 28.5938 10.0781 28.5938C10.4658 28.5938 10.7812 28.2783 10.7812 27.8906V15.9375H11.7188V20.1562C12.2358 20.1562 12.6562 19.7358 12.6562 19.2188V16.4062C12.6562 14.3386 10.9739 12.6562 8.90625 12.6562Z" fill="white"/>
<path d="M8.90625 11.7188C10.2007 11.7188 11.25 10.6694 11.25 9.375C11.25 8.08058 10.2007 7.03125 8.90625 7.03125C7.61183 7.03125 6.5625 8.08058 6.5625 9.375C6.5625 10.6694 7.61183 11.7188 8.90625 11.7188Z" fill="white"/>
<path d="M17.3438 7.96875H18.2812V14.5312H17.3438V7.96875Z" fill="white"/>
<path d="M24.8438 7.03125H25.7812V14.5312H24.8438V7.03125Z" fill="white"/>
<path d="M1.40625 1.40625V4.21875H28.5938V1.40625H1.40625ZM3.28125 3.28125H2.34375V2.34375H3.28125V3.28125ZM5.15625 3.28125H4.21875V2.34375H5.15625V3.28125ZM7.03125 3.28125H6.09375V2.34375H7.03125V3.28125Z" fill="white"/>
<path d="M16.875 22.7747L15.9375 23.7122V22.5H15V27.1875H15.9375V25.9753L16.875 26.9128V27.1875H17.8125V26.5247L16.1316 24.8438L17.8125 23.1628V22.5H16.875V22.7747Z" fill="white"/>
<path d="M20.3906 22.5H18.75V27.1875H19.6875V25.7812H20.3906C21.2953 25.7812 22.0312 25.0453 22.0312 24.1406C22.0312 23.2359 21.2953 22.5 20.3906 22.5ZM20.3906 24.8438H19.6875V23.4375H20.3906C20.7783 23.4375 21.0938 23.753 21.0938 24.1406C21.0938 24.5283 20.7783 24.8438 20.3906 24.8438Z" fill="white"/>
<path d="M22.5 23.4375H23.4375V26.25H22.5V27.1875H25.3125V26.25H24.375V23.4375H25.3125V22.5H22.5V23.4375Z" fill="white"/>
</svg>
