<svg width="26" height="26" viewBox="0 0 26 26" fill="none" xmlns="http://www.w3.org/2000/svg">
<g clip-path="url(#clip0)">
<path d="M24.0708 15.732L18.8326 19.2377L17.2714 19.15L17.2103 18.5357C17.1193 17.621 16.4151 16.8869 15.505 16.7581L9.96667 16.2728C9.42395 16.196 8.28236 15.5924 7.38734 15.079C6.53874 14.5922 5.58005 14.3302 4.60191 14.322L1.78613 14.2988V21.1825L9.75641 24.2008C10.0577 24.2859 10.3741 24.3113 10.6832 24.2625C10.685 24.2621 10.6869 24.2617 10.6887 24.2615L18.713 23.1048C19.3311 23.0062 19.9123 22.7458 20.3975 22.3502L25.5835 17.6857C26.0491 17.2725 26.1353 16.5778 25.785 16.0633C25.402 15.5001 24.6361 15.3521 24.0708 15.732Z" fill="white"/>
<path d="M25.7852 16.0633C25.7507 16.0123 25.7126 15.9649 25.6722 15.9209L20.3977 19.7944C19.9125 20.1901 19.3313 20.4503 18.7132 20.5491L10.6889 21.7058C10.6869 21.706 10.6852 21.7064 10.6834 21.7066C10.3741 21.7556 10.0577 21.73 9.75661 21.6449L1.78613 18.6268V21.1827L9.75661 24.2008C10.0577 24.2859 10.3741 24.3115 10.6834 24.2625C10.6852 24.2623 10.6869 24.2619 10.6889 24.2617L18.7132 23.1051C19.3313 23.0063 19.9125 22.746 20.3977 22.3503L25.5837 17.6859C26.0493 17.2726 26.1355 16.5781 25.7852 16.0633Z" fill="white"/>
<path d="M3.85263 23.5585H0.541733C0.242599 23.5585 0 23.3161 0 23.017V12.9079C0 12.6088 0.242599 12.3662 0.541733 12.3662H3.85263C4.15176 12.3662 4.39436 12.6088 4.39436 12.9079V23.017C4.39436 23.3161 4.15176 23.5585 3.85263 23.5585Z" fill="white"/>
<path d="M3.8526 12.3662H1.84277V23.5585H3.8526C4.15173 23.5585 4.39433 23.3161 4.39433 23.017V12.9079C4.39433 12.6088 4.15173 12.3662 3.8526 12.3662Z" fill="white"/>
<path d="M19.7177 3.54974C18.4093 3.00661 17.4955 1.77656 17.3705 0.343971C17.3532 0.147987 17.1868 -0.00118311 16.99 7.07218e-06L8.95252 0.0472178C8.75356 0.048408 8.5909 0.202934 8.57563 0.401298C8.46534 1.83428 7.56496 3.07326 6.2627 3.63027C6.04232 3.72449 5.90981 3.95222 5.93461 4.19065C6.1173 5.93725 7.18093 11.8838 12.9795 14.5586C13.0035 14.5697 13.0301 14.5754 13.0567 14.5752C13.0833 14.575 13.1096 14.5691 13.1336 14.5578C18.9001 11.8154 19.8941 5.85691 20.0562 4.10813C20.0786 3.86771 19.9407 3.64217 19.7177 3.54974Z" fill="white"/>
<path d="M19.7181 3.54974C18.4097 3.00661 17.4958 1.77656 17.3708 0.343971C17.3536 0.147987 17.1872 -0.00118311 16.9904 7.07218e-06L14.8004 0.0129007C14.803 1.58395 15.7528 2.96337 17.1596 3.54855C17.3831 3.64158 17.523 3.86692 17.5006 4.10813C17.3502 5.72956 16.484 10.9692 11.7627 13.9097C12.1436 14.142 12.5482 14.3594 12.9797 14.5586C13.0039 14.5697 13.0304 14.5754 13.057 14.5752C13.0836 14.575 13.11 14.5691 13.134 14.5576C18.9004 11.8152 19.8944 5.85691 20.0565 4.10813C20.0789 3.86771 19.9411 3.64217 19.7181 3.54974Z" fill="white"/>
<path d="M12.9444 12.9031C8.9767 10.7496 7.82598 6.75538 7.4961 4.79554C7.48202 4.71163 7.51931 4.62713 7.59171 4.5823C8.66963 3.91401 9.45674 2.87616 9.81201 1.66594C9.83819 1.57688 9.92032 1.51578 10.0131 1.51539L15.9452 1.48047C16.0381 1.47988 16.1208 1.53998 16.1482 1.62885C16.5175 2.83451 17.3167 3.86303 18.4026 4.51882C18.4754 4.56286 18.5137 4.64676 18.5006 4.73087C18.1939 6.69468 17.0906 10.7022 13.1481 12.9019C13.085 12.937 13.0077 12.9374 12.9444 12.9031Z" fill="white"/>
<path d="M18.4029 4.51882C17.317 3.86302 16.5178 2.83451 16.1485 1.62885C16.1213 1.53998 16.0384 1.48007 15.9455 1.48047L13.5537 1.49455C13.9036 2.75813 14.7212 3.83902 15.8472 4.51901C15.92 4.56285 15.958 4.64676 15.9449 4.73047C15.6708 6.4858 14.7601 9.87425 11.7539 12.1447C12.1197 12.4157 12.5156 12.6702 12.9447 12.9031C13.008 12.9374 13.0853 12.937 13.1484 12.9019C17.0909 10.7024 18.1942 6.69467 18.5009 4.73107C18.5142 4.64696 18.4757 4.56285 18.4029 4.51882Z" fill="white"/>
<path d="M3.12048 21.072C3.12048 21.6218 2.67456 22.0677 2.12469 22.0677C1.57463 22.0677 1.12891 21.6218 1.12891 21.072C1.12891 20.5219 1.57463 20.0762 2.12469 20.0762C2.67456 20.0762 3.12048 20.5219 3.12048 21.072Z" fill="white"/>
<path d="M12.8173 9.03616C12.9439 9.03556 13.0695 8.97585 13.1444 8.86279L15.7557 4.92168C15.8755 4.74097 15.8261 4.49758 15.6454 4.37777C15.4649 4.25816 15.2213 4.30755 15.1017 4.48826L12.7485 8.03957L11.4409 6.79801C11.2836 6.64884 11.0354 6.65519 10.8861 6.81249C10.7369 6.9696 10.7434 7.21795 10.9005 7.36712C10.9005 7.36712 12.5468 8.93023 12.5474 8.93063C12.6227 9.00224 12.7203 9.03675 12.8173 9.03616Z" fill="white"/>
<path d="M17.2269 18.6992L9.17949 19.2362C9.17414 19.236 9.16898 19.2356 9.16442 19.2352C8.91488 19.2126 8.68934 19.0946 8.52926 18.9027C8.38485 18.7296 8.12737 18.7062 7.9544 18.8506C7.78122 18.995 7.75801 19.2525 7.90223 19.4256C8.20195 19.7849 8.62407 20.006 9.09142 20.0483C9.11126 20.0501 9.13109 20.0515 9.14795 20.0521C9.16005 20.0527 9.17216 20.0529 9.18426 20.0529C9.18882 20.0529 9.19814 20.0529 9.2025 20.0527C9.20647 20.0525 9.21024 20.0523 9.21401 20.0521L17.2716 19.1485L17.2269 18.6992Z" fill="white"/>
</g>
<defs>
<clipPath id="clip0">
<rect width="26" height="26" fill="white"/>
</clipPath>
</defs>
</svg>
