<svg width="26" height="26" viewBox="0 0 26 26" fill="none" xmlns="http://www.w3.org/2000/svg">
<path d="M13 9.19141C10.9 9.19141 9.19141 10.9 9.19141 13C9.19141 15.1 10.9 16.8086 13 16.8086C15.1 16.8086 16.8086 15.1 16.8086 13C16.8086 10.9 15.1 9.19141 13 9.19141Z" fill="white"/>
<path d="M26 15.1483V10.8518L22.4754 10.1577C22.2827 9.51727 22.0268 8.89982 21.7084 8.31218L23.6752 5.36199L20.638 2.32477L17.6878 4.29152C17.1001 3.97313 16.4827 3.71724 15.8422 3.52457L15.1483 0H10.8518L10.1577 3.52462C9.51727 3.71729 8.89982 3.97318 8.31218 4.29157L5.36199 2.32477L2.32477 5.36199L4.29152 8.31218C3.97313 8.89982 3.71724 9.51722 3.52457 10.1577L0 10.8517V15.1482L3.52462 15.8423C3.71729 16.4827 3.97318 17.1002 4.29157 17.6878L2.32477 20.638L5.36199 23.6752L8.31218 21.7085C8.89982 22.0269 9.51722 22.2828 10.1577 22.4754L10.8517 26H15.1482L15.8423 22.4754C16.4827 22.2827 17.1002 22.0268 17.6878 21.7084L20.638 23.6752L23.6752 20.638L21.7085 17.6878C22.0269 17.1001 22.2828 16.4827 22.4754 15.8422L26 15.1483ZM13 18.332C10.0602 18.332 7.66797 15.9398 7.66797 13C7.66797 10.0602 10.0602 7.66797 13 7.66797C15.9398 7.66797 18.332 10.0602 18.332 13C18.332 15.9398 15.9398 18.332 13 18.332Z" fill="white"/>
</svg>
