<svg width="30" height="30" viewBox="0 0 30 30" fill="none" xmlns="http://www.w3.org/2000/svg">
<g clip-path="url(#clip0)">
<path d="M8.56416 4.43959L8.71798 7.05236C11.9896 4.45422 16.5171 4.12073 20.134 6.21173C20.2778 6.29477 20.3747 6.44023 20.3964 6.60501C20.4181 6.7698 20.3617 6.93536 20.2442 7.05288L19.4955 7.80158L25.0746 7.47385L25.4015 1.89708L24.4998 2.79725C24.3136 2.9824 24.0206 3.00512 23.8083 2.85078C18.1456 -1.26879 10.3786 -0.888561 5.14551 3.76427L8.06172 3.93532C8.33305 3.95151 8.54902 4.16852 8.56416 4.43959Z" fill="white"/>
<path d="M27.1973 23.7585C31.3176 18.0963 30.9374 10.3285 26.2838 5.0957L26.1127 8.01218C26.0965 8.28272 25.8806 8.49869 25.6098 8.51436L22.9973 8.66843C25.5951 11.9401 25.9284 16.4673 23.8379 20.0844C23.7549 20.2283 23.6094 20.3252 23.4446 20.3469C23.2798 20.3683 23.1143 20.3121 22.9967 20.1944L22.248 19.4456L22.5758 25.025L28.1551 25.3533L27.2534 24.4518C27.0664 24.2661 27.0427 23.9718 27.1973 23.7585Z" fill="white"/>
<path d="M19.2168 14.0492C19.11 13.5805 18.9241 13.1331 18.6674 12.7265C18.5345 12.5153 18.5653 12.24 18.7418 12.0635L19.2082 11.5971L18.452 10.8408L17.9855 11.3072C17.809 11.484 17.5332 11.5148 17.322 11.3814C16.9154 11.1247 16.468 10.939 15.9993 10.8322C15.7556 10.7768 15.583 10.5601 15.5833 10.3102V9.65234H14.5136V10.3102C14.5139 10.5601 14.341 10.7768 14.0974 10.8322C13.6286 10.939 13.1813 11.1247 12.7749 11.3814C12.5634 11.5148 12.2879 11.484 12.1111 11.3072L11.6447 10.8408L10.8884 11.5971L11.3548 12.0635C11.5316 12.24 11.5627 12.5158 11.4292 12.7271C11.1723 13.1337 10.9866 13.581 10.88 14.0498C10.8244 14.2934 10.6077 14.466 10.358 14.4658H9.7002V15.5354H10.358C10.6077 15.5352 10.8244 15.708 10.88 15.9517C10.9866 16.4204 11.1723 16.8678 11.4292 17.2741C11.5627 17.4857 11.5316 17.7612 11.3548 17.938L10.8884 18.4044L11.6447 19.1606L12.1111 18.6942C12.2879 18.5174 12.5634 18.4864 12.7749 18.6198C13.1813 18.8768 13.6286 19.0624 14.0974 19.169C14.341 19.2246 14.5139 19.4414 14.5136 19.691V20.3488H15.5833V19.691C15.583 19.4414 15.7556 19.2246 15.9993 19.169C16.468 19.0624 16.9154 18.8768 17.322 18.6198C17.5332 18.4864 17.809 18.5174 17.9855 18.6942L18.452 19.1606L19.2082 18.4044L18.7418 17.938C18.5653 17.7614 18.5345 17.4862 18.6674 17.2746C18.9241 16.8683 19.11 16.421 19.2168 15.9522C19.2719 15.7086 19.4884 15.5357 19.7384 15.5354H20.3967V14.4658H19.7384C19.4884 14.4658 19.2719 14.2929 19.2168 14.0492ZM15.0484 17.6747C13.5714 17.6747 12.3743 16.4776 12.3743 15.0006C12.3743 13.5238 13.5714 12.3265 15.0484 12.3265C16.5252 12.3265 17.7226 13.5238 17.7226 15.0006C17.7207 16.4768 16.5244 17.6732 15.0484 17.6747Z" fill="white"/>
<path d="M16.6533 15C16.6533 15.8863 15.9349 16.6045 15.0488 16.6045C14.1625 16.6045 13.4443 15.8863 13.4443 15C13.4443 14.1139 14.1625 13.3955 15.0488 13.3955C15.9349 13.3955 16.6533 14.1139 16.6533 15Z" fill="white"/>
<path d="M21.4142 17.5833C21.6163 17.4916 21.854 17.5342 22.0115 17.6903L23.2417 18.923C24.8679 15.5265 24.232 11.479 21.6425 8.74481L18.1523 8.95007C18.1418 8.95059 18.1314 8.95059 18.1207 8.95007C17.9044 8.95007 17.7094 8.81976 17.6268 8.61998C17.544 8.42021 17.5897 8.19014 17.7425 8.03711L18.9754 6.80711C15.5787 5.18174 11.5317 5.81763 8.79698 8.40636L9.0025 11.8966C9.01556 12.118 8.89021 12.3246 8.68782 12.4157C8.48517 12.5066 8.24753 12.463 8.09058 12.3063L6.86059 11.0761C5.23417 14.4725 5.87006 18.5203 8.45958 21.2545L11.9498 21.0489C12.1702 21.0372 12.3752 21.162 12.4661 21.3634C12.5567 21.5647 12.5144 21.8008 12.3595 21.9582L11.1295 23.1882C14.5263 24.8136 18.5732 24.1777 21.3077 21.5892L21.0969 18.1022C21.0847 17.8799 21.2108 17.6734 21.4142 17.5833ZM20.9329 16.6045H20.1487C20.0544 16.9033 19.9341 17.1931 19.7889 17.4705L20.3446 18.0257C20.5532 18.2346 20.5532 18.573 20.3446 18.7819L18.8315 20.2948C18.6226 20.5037 18.2841 20.5037 18.0752 20.2948L17.52 19.7403C17.2427 19.8853 16.9528 20.0051 16.6543 20.0992V20.8831C16.6543 21.1785 16.4149 21.4179 16.1195 21.4179H13.9802C13.6848 21.4179 13.4454 21.1785 13.4454 20.8831V20.0992C13.1466 20.0051 12.8567 19.8848 12.5794 19.7398L12.0242 20.2948C11.8153 20.5037 11.4769 20.5037 11.2679 20.2948L9.75486 18.7819C9.54621 18.573 9.54621 18.2346 9.75486 18.0257L10.3095 17.4705C10.1646 17.1929 10.0447 16.9033 9.95072 16.6045H9.16676C8.87141 16.6045 8.63194 16.365 8.63194 16.0697V13.9304C8.63194 13.635 8.87141 13.3955 9.16676 13.3955H9.95072C10.0447 13.0971 10.1651 12.8072 10.3101 12.5299L9.75486 11.9747C9.54621 11.7657 9.54621 11.4273 9.75486 11.2184L11.2679 9.7053C11.4769 9.49665 11.8153 9.49665 12.0242 9.7053L12.5794 10.26C12.857 10.115 13.1466 9.99491 13.4454 9.90116V9.11694C13.4454 8.82159 13.6848 8.58212 13.9802 8.58212H16.1195C16.4149 8.58212 16.6543 8.82159 16.6543 9.11694V9.90116C16.9528 9.99517 17.2427 10.1153 17.52 10.2605L18.0752 9.7053C18.2841 9.49665 18.6226 9.49665 18.8315 9.7053L20.3446 11.2184C20.5532 11.4273 20.5532 11.7657 20.3446 11.9747L19.7894 12.5299C19.9346 12.8072 20.0547 13.0971 20.1487 13.3955H20.9329C21.2283 13.3955 21.4678 13.635 21.4678 13.9304V16.0697C21.4678 16.365 21.2283 16.6045 20.9329 16.6045Z" fill="white"/>
<path d="M6.26069 9.916C6.34399 9.77211 6.48919 9.67523 6.65423 9.65355C6.81902 9.63188 6.98432 9.68828 7.10184 9.8058L7.8508 10.5545L7.5228 4.97539L1.9463 4.64844L2.84804 5.55017C3.03319 5.73637 3.05565 6.02937 2.90131 6.24169C-1.21904 11.9038 -0.839074 19.6716 3.81428 24.9044L3.98611 21.988C4.00204 21.7174 4.21801 21.5017 4.48882 21.4858L7.10132 21.332C4.5037 18.0603 4.17022 13.5329 6.26069 9.916ZM2.45162 17.5673L1.4039 17.7812C0.867512 15.1757 1.09706 12.4705 2.06434 9.99252L3.06087 10.3808C2.16854 12.6672 1.95675 15.1632 2.45162 17.5673ZM3.5137 9.35454L2.55477 8.88056C2.74045 8.50608 2.94727 8.13186 3.16873 7.7686L4.08065 8.32693C3.87591 8.66068 3.68501 9.00617 3.5137 9.35402V9.35454Z" fill="white"/>
<path d="M21.5346 25.5607L21.3805 22.9482C18.1092 25.5466 13.5814 25.8798 9.96457 23.7888C9.82094 23.7055 9.72405 23.5603 9.70264 23.3955C9.68097 23.231 9.73711 23.0657 9.85437 22.9482L10.6033 22.1992L5.02344 22.5272L4.69727 28.1032L5.599 27.2015C5.78494 27.0163 6.07794 26.9939 6.29051 27.1482C11.9524 31.2691 19.7207 30.8888 24.9533 26.2347L22.0368 26.0634C21.7663 26.0475 21.5503 25.8312 21.5346 25.5607Z" fill="white"/>
</g>
<defs>
<clipPath id="clip0">
<rect width="30" height="30" fill="white"/>
</clipPath>
</defs>
</svg>
