<svg width="30" height="30" viewBox="0 0 30 30" fill="none" xmlns="http://www.w3.org/2000/svg">
<g clip-path="url(#clip0)">
<path d="M28.6824 13.7326C28.2412 13.4963 27.713 13.5219 27.2954 13.8007L20.0004 18.6692V14.9324C20.0004 14.431 19.7196 13.9702 19.2778 13.7339C18.836 13.4976 18.298 13.5238 17.8797 13.802L10.3786 18.8015V8.32866C10.3786 8.05048 10.1652 7.80371 9.88764 7.80371H1.10882C0.831289 7.80371 0.605469 8.05048 0.605469 8.32866V29.5007C0.605469 29.7783 0.831289 30.0008 1.10882 30.0008H28.903C29.1805 30.0008 29.3946 29.7783 29.3946 29.5007V14.9305C29.3952 14.4297 29.1255 13.9689 28.6824 13.7326ZM16.8187 23.7381C16.8187 23.9338 16.6603 24.0922 16.4633 24.0922H13.9923C13.796 24.0922 13.6376 23.9338 13.6376 23.7381V21.2652C13.6376 21.0688 13.796 20.9104 13.9923 20.9104H16.4633C16.6603 20.9104 16.8187 21.0688 16.8187 21.2652V23.7381ZM26.0603 23.7381C26.0603 23.9338 25.9032 24.0922 25.7062 24.0922H23.2346C23.0382 24.0922 22.8798 23.9338 22.8798 23.7381V21.2652C22.8798 21.0688 23.0382 20.9104 23.2346 20.9104H25.7062C25.9032 20.9104 26.0603 21.0688 26.0603 21.2652V23.7381Z" fill="white"/>
<path d="M1.11012 5.83335H9.88895C10.1665 5.83335 10.3799 5.64222 10.3799 5.36469V1.35623C10.3799 0.605459 9.78356 0 9.03214 0H1.96692C1.21615 0 0.607422 0.605459 0.607422 1.35623V5.36535C0.607422 5.64222 0.833242 5.83335 1.11012 5.83335Z" fill="white"/>
</g>
<defs>
<clipPath id="clip0">
<rect width="30" height="30.0007" fill="white"/>
</clipPath>
</defs>
</svg>
