<svg width="30" height="30" viewBox="0 0 30 30" fill="none" xmlns="http://www.w3.org/2000/svg">
<path d="M29.0625 5.85942C29.249 5.85942 29.4278 5.78534 29.5597 5.65348C29.6915 5.52162 29.7656 5.34277 29.7656 5.15629C29.7656 4.96981 29.6915 4.79097 29.5597 4.65911C29.4278 4.52725 29.249 4.45317 29.0625 4.45317H27.3058L15.23 0.273091C15.081 0.22147 14.919 0.22147 14.77 0.273091L2.69426 4.45317H0.9375C0.75102 4.45317 0.572178 4.52725 0.440316 4.65911C0.308454 4.79097 0.234375 4.96981 0.234375 5.15629C0.234375 5.34277 0.308454 5.52162 0.440316 5.65348C0.572178 5.78534 0.75102 5.85942 0.9375 5.85942H29.0625ZM15 1.68168L23.0067 4.45317H6.99305L15 1.68168Z" fill="white"/>
<path d="M19.1226 28.4663L15.7031 26.329V23.4375H14.2968V26.329L10.8773 28.4663C10.7192 28.5651 10.6068 28.7227 10.5648 28.9044C10.5229 29.0861 10.5549 29.277 10.6537 29.4352C10.7525 29.5933 10.9101 29.7057 11.0918 29.7476C11.2735 29.7896 11.4645 29.7576 11.6226 29.6588L14.2968 27.9874V29.0625C14.2968 29.249 14.3709 29.4278 14.5028 29.5597C14.6346 29.6916 14.8135 29.7656 14.9999 29.7656C15.1864 29.7656 15.3653 29.6916 15.4971 29.5597C15.629 29.4278 15.7031 29.249 15.7031 29.0625V27.9874L18.3773 29.6588C18.4556 29.7077 18.5428 29.7407 18.6338 29.756C18.7249 29.7712 18.8181 29.7684 18.908 29.7476C18.998 29.7269 19.083 29.6886 19.1582 29.635C19.2334 29.5814 19.2973 29.5135 19.3462 29.4352C19.3951 29.3569 19.4282 29.2697 19.4434 29.1786C19.4587 29.0876 19.4558 28.9944 19.4351 28.9044C19.4143 28.8144 19.376 28.7294 19.3224 28.6543C19.2688 28.5791 19.2009 28.5152 19.1226 28.4663V28.4663Z" fill="white"/>
<path d="M23.5168 15.7031C22.2652 15.7031 21.0417 16.0743 20.0011 16.7696C18.9604 17.4649 18.1493 18.4533 17.6703 19.6096C17.1914 20.7659 17.0661 22.0383 17.3102 23.2658C17.5544 24.4933 18.1571 25.6209 19.0421 26.5059C19.9271 27.3909 21.0547 27.9936 22.2822 28.2378C23.5097 28.4819 24.7821 28.3566 25.9384 27.8777C27.0947 27.3987 28.0831 26.5876 28.7784 25.547C29.4737 24.5063 29.8449 23.2828 29.8449 22.0312C29.843 20.3535 29.1757 18.745 27.9893 17.5587C26.803 16.3723 25.1945 15.705 23.5168 15.7031V15.7031ZM24.2199 26.9021V26.25C24.2199 26.0635 24.1458 25.8847 24.0139 25.7528C23.8821 25.6209 23.7032 25.5469 23.5168 25.5469C23.3303 25.5469 23.1514 25.6209 23.0196 25.7528C22.8877 25.8847 22.8136 26.0635 22.8136 26.25V26.9021C21.7628 26.7487 20.7896 26.2602 20.0387 25.5093C19.2878 24.7584 18.7993 23.7852 18.6459 22.7344H19.298C19.4845 22.7344 19.6633 22.6603 19.7952 22.5284C19.9271 22.3966 20.0011 22.2177 20.0011 22.0312C20.0011 21.8448 19.9271 21.6659 19.7952 21.5341C19.6633 21.4022 19.4845 21.3281 19.298 21.3281H18.6459C18.7993 20.2773 19.2878 19.3041 20.0387 18.5532C20.7896 17.8023 21.7628 17.3138 22.8136 17.1604V17.8125C22.8136 17.999 22.8877 18.1778 23.0196 18.3097C23.1514 18.4415 23.3303 18.5156 23.5168 18.5156C23.7032 18.5156 23.8821 18.4415 24.0139 18.3097C24.1458 18.1778 24.2199 17.999 24.2199 17.8125V17.1604C25.2707 17.3138 26.2439 17.8023 26.9948 18.5532C27.7457 19.3041 28.2342 20.2773 28.3876 21.3281H27.7355C27.6432 21.3281 27.5517 21.3463 27.4664 21.3816C27.3811 21.417 27.3036 21.4688 27.2383 21.5341C27.173 21.5993 27.1212 21.6769 27.0859 21.7622C27.0506 21.8475 27.0324 21.9389 27.0324 22.0312C27.0324 22.1236 27.0506 22.215 27.0859 22.3003C27.1212 22.3856 27.173 22.4631 27.2383 22.5284C27.3036 22.5937 27.3811 22.6455 27.4664 22.6808C27.5517 22.7162 27.6432 22.7344 27.7355 22.7344H28.3876C28.2342 23.7852 27.7457 24.7584 26.9948 25.5093C26.2439 26.2602 25.2707 26.7487 24.2199 26.9021V26.9021Z" fill="white"/>
<path d="M24.8947 19.6596L23.3781 21.1763L21.9564 20.4655C21.8737 20.4236 21.7836 20.3986 21.6913 20.3917C21.5989 20.3848 21.5061 20.3962 21.4181 20.4252C21.3302 20.4543 21.2489 20.5005 21.1788 20.5611C21.1088 20.6217 21.0514 20.6955 21.01 20.7784C20.9685 20.8612 20.9439 20.9514 20.9374 21.0438C20.931 21.1362 20.9429 21.229 20.9724 21.3168C21.0019 21.4046 21.0484 21.4857 21.1094 21.5554C21.1703 21.6252 21.2444 21.6822 21.3275 21.7232L23.2025 22.6607C23.3345 22.7267 23.4839 22.7495 23.6296 22.7259C23.7752 22.7022 23.9098 22.6334 24.0141 22.529L25.8891 20.654C26.0204 20.522 26.0939 20.3434 26.0937 20.1572C26.0934 19.9711 26.0194 19.7926 25.8877 19.661C25.7561 19.5294 25.5776 19.4553 25.3915 19.4551C25.2053 19.4548 25.0267 19.5284 24.8947 19.6597V19.6596Z" fill="white"/>
<path d="M7.03125 17.1094C7.41958 17.1094 7.73438 16.7946 7.73438 16.4062C7.73438 16.0179 7.41958 15.7031 7.03125 15.7031C6.64292 15.7031 6.32812 16.0179 6.32812 16.4062C6.32812 16.7946 6.64292 17.1094 7.03125 17.1094Z" fill="white"/>
<path d="M18.5159 14.0628C18.516 13.9008 18.4599 13.7438 18.3572 13.6186L18.3567 13.618C18.356 13.6172 18.3554 13.6162 18.3547 13.6153C18.2493 13.4878 18.1023 13.4016 17.9395 13.3718C17.7768 13.3421 17.6087 13.3707 17.465 13.4526C17.3212 13.5346 17.211 13.6646 17.1538 13.8199C17.0965 13.9751 17.0958 14.1456 17.1519 14.3012C17.208 14.4569 17.3172 14.5878 17.4603 14.6709C17.6033 14.754 17.7712 14.7839 17.9341 14.7554C18.0971 14.7269 18.2448 14.6418 18.3513 14.5151C18.4577 14.3884 18.516 14.2282 18.5159 14.0628V14.0628Z" fill="white"/>
<path d="M11.7188 11.9531C12.1071 11.9531 12.4219 11.6383 12.4219 11.25C12.4219 10.8617 12.1071 10.5469 11.7188 10.5469C11.3304 10.5469 11.0156 10.8617 11.0156 11.25C11.0156 11.6383 11.3304 11.9531 11.7188 11.9531Z" fill="white"/>
<path d="M16.4852 22.0312C16.4845 20.7085 16.8571 19.4124 17.5602 18.292C18.2633 17.1716 19.2684 16.2723 20.4598 15.6977C21.6512 15.1231 22.9806 14.8964 24.2951 15.0437C25.6097 15.191 26.8559 15.7063 27.8906 16.5304V6.5625H2.10938V22.0312C2.10938 22.2177 2.18345 22.3966 2.31532 22.5284C2.44718 22.6603 2.62602 22.7344 2.8125 22.7344H16.5203C16.4972 22.503 16.4855 22.2687 16.4852 22.0312ZM15.7031 14.0625C15.7031 13.9968 15.7066 13.9318 15.7125 13.8676L13.2281 12.7212C12.9329 13.025 12.5529 13.2327 12.1378 13.3171C11.7226 13.4016 11.2917 13.3588 10.9013 13.1946L8.88867 15.4079C9.12398 15.8461 9.19681 16.3533 9.0943 16.84C8.99179 17.3267 8.72053 17.7615 8.32846 18.0675C7.9364 18.3736 7.44877 18.5312 6.95175 18.5125C6.45473 18.4938 5.98031 18.3 5.61235 17.9654C5.24439 17.6307 5.00657 17.1768 4.94091 16.6838C4.87526 16.1907 4.986 15.6904 5.25357 15.2711C5.52113 14.8518 5.9283 14.5407 6.4031 14.3925C6.87791 14.2444 7.38979 14.2689 7.84828 14.4617L9.86133 12.2484C9.70922 11.9658 9.6236 11.6522 9.611 11.3315C9.5984 11.0108 9.65915 10.6914 9.78863 10.3977C9.9181 10.104 10.1129 9.84378 10.3581 9.63676C10.6034 9.42974 10.8927 9.28141 11.2039 9.20307C11.5152 9.12474 11.8402 9.11846 12.1542 9.18472C12.4683 9.25098 12.763 9.38802 13.0161 9.58542C13.2692 9.78282 13.4739 10.0354 13.6146 10.3238C13.7553 10.6123 13.8283 10.929 13.8281 11.25C13.8281 11.3157 13.8247 11.3807 13.8188 11.4449L16.3031 12.5913C16.6353 12.2493 17.0738 12.0303 17.5467 11.97C18.0196 11.9097 18.499 12.0118 18.9063 12.2594L20.9844 10.5586C20.8152 10.09 20.8172 9.57675 20.9899 9.1095C21.1626 8.64224 21.495 8.25111 21.9282 8.00524C22.3615 7.75936 22.8677 7.6746 23.3574 7.76591C23.8472 7.85723 24.2888 8.11876 24.6043 8.50425C24.9199 8.88975 25.0889 9.37439 25.0816 9.8725C25.0744 10.3706 24.8912 10.8501 24.5645 11.2262C24.2379 11.6023 23.7888 11.8508 23.2966 11.9278C22.8044 12.0047 22.3009 11.9052 21.875 11.6467L19.7969 13.3477C19.9013 13.6372 19.941 13.946 19.9133 14.2526C19.8857 14.5591 19.7913 14.8558 19.6368 15.122C19.4822 15.3881 19.2714 15.6173 19.0189 15.7933C18.7664 15.9693 18.4785 16.0879 18.1753 16.1409C17.8722 16.1938 17.5611 16.1798 17.2639 16.0997C16.9667 16.0197 16.6907 15.8756 16.4551 15.6776C16.2195 15.4795 16.0302 15.2323 15.9002 14.9533C15.7703 14.6743 15.7031 14.3703 15.7031 14.0625V14.0625Z" fill="white"/>
<path d="M22.425 10.289C22.4257 10.2898 22.4263 10.2908 22.427 10.2916C22.5525 10.4542 22.7374 10.5603 22.941 10.5866C23.1447 10.6129 23.3505 10.5574 23.5132 10.4321C23.6759 10.3068 23.7823 10.122 23.8089 9.91838C23.8355 9.71474 23.7802 9.50887 23.6551 9.34598C23.53 9.1831 23.3454 9.07651 23.1418 9.04964C22.9382 9.02276 22.7323 9.0778 22.5692 9.20265C22.4062 9.32751 22.2993 9.51198 22.2722 9.71555C22.245 9.91911 22.2998 10.1251 22.4244 10.2884L22.425 10.289Z" fill="white"/>
</svg>
