<svg width="30" height="32" viewBox="0 0 30 32" fill="none" xmlns="http://www.w3.org/2000/svg">
<path d="M21.3836 15.0162H22.7639C22.3583 11.1796 19.4864 8.12561 15.8786 7.69434V9.16209H14.1216V7.69434C10.5138 8.12561 7.64189 11.1796 7.23633 15.0162H8.61658V16.8845H7.23633C7.64189 20.721 10.5138 23.775 14.1216 24.2063V22.7386H15.8786V24.2063C19.4864 23.775 22.3583 20.721 22.7639 16.8845H21.3836V15.0162ZM16.8673 19.257L14.1216 16.3373V11.0305H15.8786V15.5634L18.1096 17.936L16.8673 19.257Z" fill="white"/>
<path d="M30 19.6476V12.2544H27.7961C27.5011 11.0952 27.069 9.98637 26.5058 8.94353L28.0647 7.28583L23.1486 2.05808L21.5897 3.71584C20.609 3.1168 19.5663 2.65731 18.4762 2.34362V0H11.5238V2.34356C10.4337 2.65725 9.39099 3.1168 8.41027 3.71578L6.8514 2.05802L1.93532 7.28583L3.49425 8.94353C2.93098 9.98637 2.49889 11.0952 2.2039 12.2544H0V19.6476H2.2039C2.49889 20.807 2.93092 21.9155 3.49425 22.9585L1.93532 24.6162L6.8514 29.844L8.41027 28.1863C9.39099 28.7852 10.4337 29.2448 11.5238 29.5585V31.902H18.4762V29.5585C19.5663 29.2447 20.609 28.7852 21.5897 28.1863L23.1485 29.844L28.0646 24.6162L26.5057 22.9585C27.069 21.9156 27.5011 20.8071 27.796 19.6476H30ZM15 26.1281C9.72287 26.1281 5.42963 21.5627 5.42963 15.951C5.42963 10.3393 9.72287 5.77386 15 5.77386C20.2771 5.77386 24.5704 10.3393 24.5704 15.951C24.5704 21.5627 20.2771 26.1281 15 26.1281Z" fill="white"/>
</svg>
