<svg width="30" height="32" viewBox="0 0 30 32" fill="none" xmlns="http://www.w3.org/2000/svg">
<g clip-path="url(#clip0)">
<path d="M8.56361 4.72106L8.71743 7.49946C11.9891 4.73661 16.5165 4.38198 20.1334 6.60554C20.2773 6.69385 20.3742 6.84853 20.3959 7.02376C20.4175 7.19899 20.3611 7.37505 20.2436 7.50002L19.4949 8.29619L25.074 7.94767L25.401 2.01735L24.4992 2.97459C24.313 3.17148 24.02 3.19564 23.8077 3.03152C18.145 -1.34923 10.3781 -0.944894 5.14496 4.00292L8.06117 4.18481C8.3325 4.20203 8.54847 4.4328 8.56361 4.72106Z" fill="white"/>
<path d="M27.1972 25.2649C31.3175 19.2438 30.9373 10.9835 26.2837 5.41895L26.1126 8.52032C26.0964 8.80802 25.8805 9.03768 25.6097 9.05434L22.9972 9.21818C25.595 12.6972 25.9283 17.5115 23.8378 21.3579C23.7547 21.5109 23.6093 21.614 23.4445 21.637C23.2797 21.6598 23.1141 21.6001 22.9966 21.4748L22.2479 20.6787L22.5757 26.6118L28.155 26.9608L27.2533 26.0022C27.0663 25.8048 27.0426 25.4918 27.1972 25.2649V25.2649Z" fill="white"/>
<path d="M19.2178 14.9393C19.111 14.4409 18.9251 13.9652 18.6684 13.5328C18.5355 13.3081 18.5663 13.0154 18.7428 12.8277L19.2092 12.3317L18.453 11.5275L17.9865 12.0235C17.81 12.2115 17.5342 12.2442 17.323 12.1023C16.9164 11.8294 16.469 11.6319 16.0003 11.5183C15.7566 11.4595 15.584 11.229 15.5843 10.9632V10.2637H14.5146V10.9632C14.5149 11.229 14.342 11.4595 14.0983 11.5183C13.6296 11.6319 13.1822 11.8294 12.7759 12.1023C12.5644 12.2442 12.2889 12.2115 12.1121 12.0235L11.6457 11.5275L10.8894 12.3317L11.3558 12.8277C11.5326 13.0154 11.5637 13.3087 11.4302 13.5333C11.1733 13.9657 10.9876 14.4414 10.881 14.9399C10.8254 15.199 10.6087 15.3826 10.359 15.3823H9.70117V16.5197H10.359C10.6087 16.5195 10.8254 16.7033 10.881 16.9624C10.9876 17.4609 11.1733 17.9366 11.4302 18.3687C11.5637 18.5936 11.5326 18.8866 11.3558 19.0746L10.8894 19.5706L11.6457 20.3748L12.1121 19.8788C12.2889 19.6908 12.5644 19.6578 12.7759 19.7997C13.1822 20.0729 13.6296 20.2704 14.0983 20.3837C14.342 20.4428 14.5149 20.6733 14.5146 20.9388V21.6384H15.5843V20.9388C15.584 20.6733 15.7566 20.4428 16.0003 20.3837C16.469 20.2704 16.9164 20.0729 17.323 19.7997C17.5342 19.6578 17.81 19.6908 17.9865 19.8788L18.453 20.3748L19.2092 19.5706L18.7428 19.0746C18.5663 18.8869 18.5355 18.5942 18.6684 18.3692C18.9251 17.9371 19.111 17.4614 19.2178 16.963C19.2729 16.7039 19.4894 16.52 19.7394 16.5197H20.3977V15.3823H19.7394C19.4894 15.3823 19.2729 15.1984 19.2178 14.9393ZM15.0494 18.7947C13.5724 18.7947 12.3753 17.5217 12.3753 15.951C12.3753 14.3806 13.5724 13.1073 15.0494 13.1073C16.5262 13.1073 17.7236 14.3806 17.7236 15.951C17.7217 17.5209 16.5254 18.793 15.0494 18.7947Z" fill="white"/>
<path d="M16.6537 15.9513C16.6537 16.8938 15.9353 17.6575 15.0492 17.6575C14.1629 17.6575 13.4448 16.8938 13.4448 15.9513C13.4448 15.0091 14.1629 14.2451 15.0492 14.2451C15.9353 14.2451 16.6537 15.0091 16.6537 15.9513Z" fill="white"/>
<path d="M21.4137 18.698C21.6159 18.6005 21.8535 18.6458 22.011 18.8118L23.2412 20.1226C24.8674 16.5108 24.2315 12.2067 21.642 9.29915L18.1518 9.51743C18.1413 9.51798 18.1309 9.51798 18.1202 9.51743C17.9039 9.51743 17.7089 9.37885 17.6263 9.16641C17.5436 8.95397 17.5893 8.70931 17.742 8.54658L18.9749 7.2386C15.5782 5.51019 11.5312 6.18639 8.79649 8.93925L9.00201 12.6507C9.01507 12.8862 8.88972 13.1059 8.68733 13.2028C8.48468 13.2994 8.24704 13.2531 8.09009 13.0864L6.8601 11.7782C5.23368 15.39 5.86957 19.6944 8.45909 22.6019L11.9493 22.3833C12.1697 22.3709 12.3747 22.5036 12.4656 22.7177C12.5562 22.9318 12.5139 23.1829 12.359 23.3503L11.129 24.6583C14.5258 26.3867 18.5727 25.7105 21.3072 22.9579L21.0964 19.2498C21.0842 19.0134 21.2103 18.7938 21.4137 18.698V18.698ZM20.9324 17.6571H20.1482C20.0539 17.9748 19.9336 18.2831 19.7884 18.578L20.3441 19.1684C20.5527 19.3906 20.5527 19.7505 20.3441 19.9726L18.831 21.5813C18.6221 21.8035 18.2836 21.8035 18.0747 21.5813L17.5195 20.9918C17.2422 21.1459 16.9523 21.2734 16.6538 21.3733V22.207C16.6538 22.5211 16.4144 22.7757 16.119 22.7757H13.9797C13.6844 22.7757 13.4449 22.5211 13.4449 22.207V21.3733C13.1461 21.2734 12.8563 21.1454 12.5789 20.9912L12.0237 21.5813C11.8148 21.8035 11.4764 21.8035 11.2675 21.5813L9.75437 19.9726C9.54572 19.7505 9.54572 19.3906 9.75437 19.1684L10.309 18.578C10.1641 18.2828 10.0442 17.9748 9.95023 17.6571H9.16627C8.87092 17.6571 8.63145 17.4025 8.63145 17.0884V14.8135C8.63145 14.4994 8.87092 14.2447 9.16627 14.2447H9.95023C10.0442 13.9273 10.1646 13.6191 10.3096 13.3242L9.75437 12.7338C9.54572 12.5116 9.54572 12.1517 9.75437 11.9295L11.2675 10.3205C11.4764 10.0987 11.8148 10.0987 12.0237 10.3205L12.5789 10.9104C12.8565 10.7563 13.1461 10.6285 13.4449 10.5288V9.69488C13.4449 9.3808 13.6844 9.12614 13.9797 9.12614H16.119C16.4144 9.12614 16.6538 9.3808 16.6538 9.69488V10.5288C16.9523 10.6288 17.2422 10.7565 17.5195 10.9109L18.0747 10.3205C18.2836 10.0987 18.6221 10.0987 18.831 10.3205L20.3441 11.9295C20.5527 12.1517 20.5527 12.5116 20.3441 12.7338L19.7889 13.3242C19.9341 13.6191 20.0542 13.9273 20.1482 14.2447H20.9324C21.2278 14.2447 21.4673 14.4994 21.4673 14.8135V17.0884C21.4673 17.4025 21.2278 17.6571 20.9324 17.6571V17.6571Z" fill="white"/>
<path d="M6.26069 10.5449C6.34399 10.3919 6.48919 10.2888 6.65424 10.2658C6.81902 10.2427 6.98432 10.3027 7.10184 10.4277L7.8508 11.2239L7.5228 5.29104L1.9463 4.94336L2.84804 5.90226C3.03319 6.10027 3.05565 6.41185 2.90131 6.63762C-1.21904 12.6587 -0.839074 20.919 3.81428 26.4836L3.98611 23.3822C4.00204 23.0945 4.21801 22.8651 4.48882 22.8482L7.10132 22.6846C4.5037 19.2056 4.17022 14.3911 6.26069 10.5449V10.5449ZM2.45162 18.6813L1.4039 18.9087C0.867512 16.1381 1.09706 13.2614 2.06434 10.6262L3.06087 11.0392C2.16854 13.4705 1.95675 16.1247 2.45162 18.6813ZM3.5137 9.94782L2.55477 9.4438C2.74045 9.04557 2.94727 8.64762 3.16873 8.26134L4.08065 8.85507C3.87591 9.20997 3.68501 9.57737 3.5137 9.94727V9.94782Z" fill="white"/>
<path d="M21.535 27.182L21.381 24.4039C18.1096 27.167 13.5819 27.5214 9.965 25.2978C9.82137 25.2092 9.72448 25.0548 9.70307 24.8796C9.68139 24.7046 9.73754 24.5288 9.85479 24.4039L10.6038 23.6074L5.02386 23.9562L4.69769 29.8857L5.59943 28.9268C5.78536 28.7299 6.07837 28.706 6.29094 28.8702C11.9528 33.2523 19.7211 32.848 24.9537 27.8988L22.0372 27.7166C21.7667 27.6996 21.5507 27.4697 21.535 27.182V27.182Z" fill="white"/>
</g>
<defs>
<clipPath id="clip0">
<rect width="30" height="31.902" fill="white"/>
</clipPath>
</defs>
</svg>
