<svg width="118" height="94" viewBox="0 0 118 94" fill="none" xmlns="http://www.w3.org/2000/svg">
<path d="M112.121 74.0852C111.496 73.8106 111.328 72.9765 111.807 72.4767L116.849 67.1797C117.027 66.9931 117.126 66.7432 117.126 66.4828V63.016C117.126 62.4669 116.695 62.0234 116.162 62.0234H95.5313C94.9984 62.0234 94.5679 62.4669 94.5679 63.016V67.7006C94.5679 68.2496 94.9984 68.6931 95.5313 68.6931H104.725C105.606 68.6931 106.026 69.8123 105.37 70.4212L101.985 73.5783C101.691 73.8529 101.592 74.2823 101.729 74.6624L102.917 77.9321C103.088 78.4073 103.58 78.6747 104.055 78.5445C104.544 78.4143 105.107 78.3333 105.592 78.3333C107.933 78.3333 109.603 80.0544 109.603 82.4654C109.603 84.7285 107.806 86.5904 105.609 86.5974C103.314 86.608 101.759 84.7989 101.223 82.1521C101.117 81.6347 100.649 81.2793 100.14 81.3567L94.0964 82.2472C93.5703 82.3246 93.2048 82.8244 93.2766 83.3664C94.076 89.5257 98.6846 93.9182 105.633 93.9182C112.818 93.9182 118 89.4835 118 83.2854C118.004 79.0901 115.606 75.6021 112.121 74.0852Z" fill="white"/>
<path d="M76.4571 19.5629L45.9597 1.4228C42.7689 -0.474268 38.8401 -0.474268 35.6527 1.4228L5.15523 19.5629C1.96439 21.46 0 24.9655 0 28.7596V65.0398C0 68.834 1.96439 72.3395 5.15523 74.2366L35.6527 92.3767C38.8435 94.2738 42.7723 94.2738 45.9597 92.3767L76.4571 74.2366C79.648 72.3395 81.6124 68.834 81.6124 65.0398V28.7596C81.6124 24.9655 79.648 21.46 76.4571 19.5629ZM40.8079 72.8112C26.9171 72.8112 15.657 61.2105 15.657 46.8998C15.657 32.589 26.9171 20.9884 40.8079 20.9884C54.6986 20.9884 65.9588 32.589 65.9588 46.8998C65.9588 61.2105 54.6952 72.8112 40.8079 72.8112Z" fill="white"/>
</svg>
