<svg height='100px' width='100px'  fill="#ffffff" xmlns="http://www.w3.org/2000/svg" xmlns:xlink="http://www.w3.org/1999/xlink" version="1.1" x="0px" y="0px" viewBox="0 0 100 100" style="enable-background:new 0 0 100 100;" xml:space="preserve"><style type="text/css">
	.st0{fill:#ffffff;}
	.st1{fill:#ffffff;}
	.st2{fill:#ffffff;}
</style><g><g><g><path class="st1" d="M50.1,9.1l0.1-0.2c0.3-0.4,0.9-0.5,1.3-0.2L51.8,9C51.9,9.1,52,9.1,52,9.2C53.2,8.4,54.6,8,56.2,8     c4.2,0,7.5,3.4,7.5,7.5c0,3.4-2.2,6.3-5.3,7.2c-0.7,0.2-1.4,0.3-2.2,0.3c-1.7,0-3.2-0.5-4.4-1.4c-1.9-1.4-3.1-3.6-3.1-6.1     c0-1.2,0.3-2.4,0.8-3.4c0,0,0,0,0,0l-0.3-0.2c-0.4-0.3-0.5-0.9-0.2-1.3l0.2-0.2c-2.4-0.5-1.7,1.6-1.6,8c0.1,3.8-5.4,6.1-10,2.5     c1.5,0.2,4.6,0.5,4.4-2.5c-0.1-1.7-2.2-7.9,1.6-10.5C46.9,5.3,49.2,8.5,50.1,9.1z"></path><path class="st1" d="M90.3,75.2v2.6c0,0.5-0.4,0.9-0.9,0.9H65.1c-0.5,0-0.9-0.4-0.9-0.9v-2.6c0-0.5,0.4-0.9,0.9-0.9h24.3     C89.9,74.3,90.3,74.7,90.3,75.2z"></path><path class="st1" d="M80.6,38.9V41c0,0.7-0.6,1.3-1.3,1.3H67.4c-0.4,0-0.8-0.2-1-0.5l-5.7-6.3l-5,12.9l15.4,5.7     c0.5,0.2,0.9,0.7,0.8,1.2c0,0,0,0,0,0.1l-0.6,13.6c0,0.7-0.6,1.3-1.3,1.3h-2.9c-0.7,0-1.3-0.6-1.3-1.3l-0.7-7.5l-10.4-3.7l-5.6-2     l-1.1-0.4L42,53.2c-0.2-0.1-0.8-0.4-0.7-1.3l2.8-18.6l-7.8,2.3c0,0-0.1,0-0.1,0l-3.6,10.3c-0.2,0.7-0.9,1-1.6,0.8L28,45.4     c-0.7-0.2-1-0.9-0.8-1.6l4.6-12.4c0.1-0.4,0.4-0.7,0.8-0.8c0,0,0,0,0,0c0.1-0.1,0.2-0.1,0.3-0.2L46,25.7c1.9-0.7,3.8-1.1,5.3,0.2     c0.5,0.5,2.3,2.4,3.9,4c0.4,0.4,1.1,0.2,1.2-0.3c0.4-0.8,0.8-3.1,1.2-3.5c0.6-0.6,2.2-0.7,4,0.8l7.6,9.9c0.1,0.1,0.2,0.2,0.4,0.3     l9,0.4C80.1,37.6,80.6,38.2,80.6,38.9z"></path><path class="st1" d="M76.7,83v2.6c0,0.5-0.4,0.9-0.9,0.9H51.5c-0.5,0-0.9-0.4-0.9-0.9V83c0-0.5,0.4-0.9,0.9-0.9h24.3     C76.3,82.1,76.7,82.5,76.7,83z"></path><path class="st1" d="M61.5,90.9v2.6c0,0.5-0.4,0.9-0.9,0.9H36.3c-0.5,0-0.9-0.4-0.9-0.9v-2.6c0-0.5,0.4-0.9,0.9-0.9h24.3     C61.1,90,61.5,90.4,61.5,90.9z"></path><path class="st1" d="M54.8,57.7C54.8,57.7,54.8,57.8,54.8,57.7l-5.7-2l0.1,0L54.8,57.7z"></path><path class="st1" d="M51.2,71.3c0.5,0.4,0.6,1.1,0.3,1.6c0,0,0,0,0,0.1c0,0-0.1,0.1-0.1,0.1l-9.2,10.3c-0.4,0.5-1.2,0.6-1.8,0.2     l-3-2.1c-0.5-0.4-0.6-1.2-0.2-1.8l5.5-7l0.1-0.2"></path><path class="st1" d="M42.9,72.5l-0.1,0.2c0,0,0,0,0-0.2l2.6-14.7l8.9,3.2l-2.5,11.4c0,0.1-0.1,0.3-0.2,0.4"></path><path class="st1" d="M39.1,56.5c0.7,0.2,0,3-0.2,3.6l-3.8,11.2c-0.2,0.7-1,1-1.6,0.8L9,63.1c-0.7-0.2-1-1-0.8-1.6L13,48.3     c0.2-0.7,1-1,1.6-0.8L39.1,56.5z"></path><path class="st1" d="M33,49.2c0.2,0.1,0.4,0.3,0.3,0.6L32.5,52c-0.1,0.2-0.3,0.4-0.6,0.3l-9.3-3.4c-0.2-0.1-0.4-0.3-0.3-0.6     l0.8-2.2c0.1-0.2,0.4-0.4,0.6-0.3L33,49.2z"></path></g></g></g></svg>