<svg height='100px' width='100px'  fill="#ffffff" xmlns="http://www.w3.org/2000/svg" xmlns:xlink="http://www.w3.org/1999/xlink" xml:space="preserve" style="shape-rendering:geometricPrecision;text-rendering:geometricPrecision;image-rendering:optimizeQuality;" viewBox="0 0 100 100" x="0px" y="0px" fill-rule="evenodd" clip-rule="evenodd"><defs><style type="text/css">
   
    .fil0 {fill:#ffffff}
   
  </style></defs><g><path class="fil0" d="M64.1946 19.2179c3.97444,0.816148 3.59058,3.73349 3.58467,7.02171 -0.0141733,7.62289 20.5809,8.06581 23.2266,2.42128 3.31184,-7.07368 -2.71656,-14.1013 -8.74495,-17.1923 -16.8178,-8.62093 -47.7016,-8.62093 -64.5206,0 -6.02839,3.09097 -12.0568,10.1186 -8.74495,17.1923 2.64569,5.64453 23.2407,5.20162 23.2266,-2.42128 -0.00590556,-3.28821 -0.389767,-6.20556 3.58467,-7.02171 8.23707,-1.69371 20.1509,-1.69371 28.388,0zm-8.97999 9.56346l0 -4.56618c0,-3.03664 8.33156,-3.03664 8.33156,0l0 6.7406c14.419,5.43784 26.4286,18.9013 26.4593,34.3326 0.0342522,17.3895 -1.95238,29.6164 -16.4257,29.712l-23.5785 0 -23.5797 0c-14.4733,-0.09567 -16.46,-12.3225 -16.4257,-29.712 0.0307089,-15.4312 12.0403,-28.8935 26.4593,-34.3326l0 -6.7406c0,-3.03664 8.33156,-3.03664 8.33156,0l0 4.56618c1.73505,-0.25512 3.47719,-0.389767 5.21461,-0.389767 1.73623,0 3.47837,0.134647 5.21343,0.389767zm-5.21343 17.7391c7.77644,0 14.0824,5.15673 14.0824,11.517 0,6.35911 -6.30596,11.517 -14.0824,11.517 -7.77762,0 -14.0836,-5.15791 -14.0836,-11.517 0,-6.36029 6.30596,-11.517 14.0836,-11.517zm0 -6.20084c11.9635,0 21.6651,7.93353 21.6651,17.7179 0,9.78315 -9.70165,17.7179 -21.6651,17.7179 -11.9647,0 -21.6663,-7.93471 -21.6663,-17.7179 0,-9.78433 9.70165,-17.7179 21.6663,-17.7179z"></path></g></svg>