<svg height='100px' width='100px'  fill="#ffffff" xmlns="http://www.w3.org/2000/svg" xmlns:xlink="http://www.w3.org/1999/xlink" xml:space="preserve" style="shape-rendering:geometricPrecision;text-rendering:geometricPrecision;image-rendering:optimizeQuality;" viewBox="0 0 6.82666 6.82666" x="0px" y="0px" fill-rule="evenodd" clip-rule="evenodd"><defs><style type="text/css">
   
    .fil1 {fill:none}
    .fil0 {fill:#ffffff;fill-rule:nonzero}
   
  </style></defs><g><g><path class="fil0" d="M0.910657 0.906732l2.6942 0 0.0573228 0 0 0.0573228 0 4.89855 0 0.0573228 -0.0573228 0 -0.853335 0 0 -1.10218 -0.987528 0 0 1.10218 -0.853339 0 -0.0573268 0 0 -0.0573228 0 -4.89855 0 -0.0573228 0.0573268 0zm1.08567 0.521772l-0.62013 0 0 0.62013 0.62013 0 0 -0.62013zm1.14299 0l-0.62013 0 0 0.62013 0.62013 0 0 -0.62013zm-1.14299 1.14353l-0.62013 0 0 0.620134 0.62013 0 0 -0.620134zm1.14299 0l-0.62013 0 0 0.620134 0.62013 0 0 -0.620134zm-1.14299 1.14188l-0.62013 0 0 0.620134 0.62013 0 0 -0.620134zm1.14299 0l-0.62013 0 0 0.620134 0.62013 0 0 -0.620134z"></path><path class="fil0" d="M3.19315 3.23354l2.72286 0 0.0573228 0 0 0.0573268 0 2.57174 0 0.0573228 -0.0573228 0 -2.72286 0 -0.0573228 0 0 -0.0573228 0 -2.57174 0 -0.0573268 0.0573228 0zm1.11433 0.461362l-0.62013 0 0 0.62013 0.62013 0 0 -0.62013zm1.14299 0l-0.62013 0 0 0.62013 0.62013 0 0 -0.62013zm-1.14299 1.14353l-0.62013 0 0 0.620134 0.62013 0 0 -0.620134zm1.14299 0l-0.62013 0 0 0.620134 0.62013 0 0 -0.620134z"></path></g></g><rect class="fil1" width="6.82666" height="6.82666"></rect></svg>