<svg height='100px' width='100px'  fill="#000000" xmlns="http://www.w3.org/2000/svg" xmlns:xlink="http://www.w3.org/1999/xlink" version="1.1" x="0px" y="0px" viewBox="0 0 100 100" style="enable-background:new 0 0 100 100;" xml:space="preserve"><g><path d="M33.7,82.2h39c2.4,0.3,4.9-0.5,6.7-2.3s2.6-4.3,2.3-6.7v-39c0-4.1-2.9-7.8-7-8.4c-5.1-0.8-9.5,3.2-9.5,8.1V54   c0,0.1-0.1,0.1-0.1,0L32.5,21.4c-2.9-2.9-7.6-3.5-10.9-1c-4.1,3-4.4,8.9-0.9,12.4l32.9,32.9c0,0,0,0.1,0,0.1H33.4   c-4.9,0-8.9,4.4-8.1,9.5C25.9,79.3,29.6,82.2,33.7,82.2z"></path></g></svg>